<svg id="svg" version="1.1" xmlns="http://www.w3.org/2000/svg" xmlns:xlink="http://www.w3.org/1999/xlink" width="400" height="400" viewBox="0, 0, 400,400"><g id="svgg"><path id="path0" d="M38.394 149.010 C 38.469 210.409,38.424 207.466,39.369 212.949 C 42.567 231.499,52.110 245.413,67.500 253.963 C 71.802 256.353,75.753 257.951,82.188 259.903 C 90.149 262.319,103.420 263.568,113.646 262.863 C 124.565 262.110,134.824 259.611,142.292 255.884 C 144.477 254.793,144.299 255.055,144.807 252.188 C 146.613 241.989,156.177 233.542,165.918 233.542 C 168.439 233.542,172.896 221.800,174.460 211.042 C 175.181 206.078,175.208 203.781,175.208 147.364 L 175.208 91.248 157.760 91.301 L 140.313 91.354 140.193 146.979 C 140.064 207.322,140.127 204.143,138.963 209.714 C 135.700 225.340,123.711 232.610,103.419 231.266 C 86.125 230.121,77.629 223.762,74.598 209.696 C 73.512 204.655,73.542 206.452,73.542 147.048 C 73.542 116.722,73.485 91.761,73.415 91.580 C 73.301 91.283,71.556 91.250,55.806 91.250 L 38.323 91.250 38.394 149.010 " stroke="none" fill="#5b63f3" fill-rule="evenodd"></path><path id="path1" d="M167.188 239.304 C 156.877 239.949,150.417 246.878,150.417 257.292 C 150.417 269.319,159.637 276.582,172.614 274.777 C 181.681 273.516,187.403 266.685,187.348 257.188 C 187.280 245.668,179.255 238.549,167.188 239.304 " stroke="none" fill="#fbe35b" fill-rule="evenodd"></path><path id="path2" d="M166.875 233.333 C 166.703 233.444,166.270 233.537,165.913 233.538 C 156.121 233.587,146.581 242.018,144.811 252.188 C 144.672 252.990,144.410 254.132,144.229 254.726 C 143.867 255.913,143.927 260.753,144.306 261.012 C 144.415 261.085,144.614 261.755,144.749 262.500 C 147.354 276.901,162.437 284.740,178.220 279.894 C 192.395 275.543,198.205 256.275,189.298 243.156 C 188.882 242.543,188.542 241.905,188.542 241.737 C 188.542 240.701,183.213 236.502,180.313 235.253 C 176.527 233.622,168.256 232.441,166.875 233.333 M173.229 239.614 C 190.827 242.491,192.640 268.906,175.598 274.131 C 162.295 278.209,150.417 270.266,150.417 257.292 C 150.417 244.788,159.905 237.435,173.229 239.614 " stroke="none" fill="#4c4d4c" fill-rule="evenodd"></path><path id="path3" d="M299.030 134.947 C 299.084 135.033,298.610 135.071,297.976 135.031 C 297.343 134.991,296.874 135.038,296.934 135.136 C 296.995 135.233,296.632 135.298,296.127 135.281 C 294.962 135.241,292.069 135.642,292.183 135.827 C 292.231 135.903,291.980 135.924,291.626 135.872 C 291.249 135.816,291.033 135.859,291.105 135.976 C 291.177 136.092,290.971 136.137,290.614 136.084 C 290.232 136.028,290.000 136.087,290.000 136.239 C 290.000 136.373,289.916 136.431,289.813 136.367 C 289.533 136.194,288.323 136.481,288.452 136.690 C 288.513 136.789,288.418 136.814,288.240 136.746 C 288.062 136.678,287.753 136.693,287.552 136.780 C 287.119 136.968,286.929 137.009,286.290 137.052 C 285.984 137.072,285.863 137.171,285.957 137.324 C 286.048 137.471,286.015 137.508,285.870 137.419 C 285.387 137.120,279.902 139.048,280.140 139.433 C 280.216 139.556,280.171 139.585,280.034 139.500 C 279.781 139.344,276.252 140.945,275.993 141.333 C 275.909 141.459,275.838 141.478,275.837 141.374 C 275.835 141.270,275.669 141.325,275.469 141.495 C 275.268 141.666,274.776 141.959,274.375 142.146 C 273.253 142.671,272.480 143.243,272.655 143.421 C 272.741 143.509,272.672 143.558,272.500 143.529 C 272.059 143.454,271.438 143.757,271.576 143.980 C 271.639 144.083,271.556 144.167,271.392 144.167 C 270.988 144.167,268.631 146.023,268.703 146.283 C 268.735 146.397,268.663 146.429,268.544 146.356 C 268.426 146.282,267.087 147.476,265.571 149.007 C 262.061 152.550,261.808 152.845,261.997 153.171 C 262.081 153.318,262.078 153.373,261.990 153.294 C 261.798 153.121,261.254 153.580,261.388 153.802 C 261.440 153.888,261.388 153.958,261.273 153.958 C 261.021 153.958,258.891 157.077,258.890 157.448 C 258.889 157.591,258.812 157.708,258.719 157.708 C 258.176 157.708,254.570 166.304,254.087 168.750 C 254.030 169.036,253.799 170.115,253.573 171.146 C 251.771 179.360,252.874 193.067,255.941 200.564 C 257.156 203.537,257.971 205.199,258.156 205.085 C 258.251 205.026,258.273 205.124,258.204 205.302 C 258.136 205.480,258.184 205.625,258.311 205.625 C 258.438 205.625,258.523 205.695,258.500 205.781 C 258.436 206.018,259.359 207.708,259.553 207.708 C 259.646 207.708,259.722 207.835,259.722 207.991 C 259.722 208.344,261.047 210.208,261.298 210.208 C 261.400 210.208,261.436 210.284,261.379 210.376 C 261.323 210.468,261.588 210.884,261.970 211.301 C 262.352 211.717,262.626 212.096,262.580 212.142 C 262.424 212.298,266.702 216.667,267.010 216.667 C 267.179 216.667,267.266 216.748,267.205 216.847 C 267.063 217.076,267.799 217.757,267.986 217.570 C 268.062 217.493,268.125 217.572,268.125 217.745 C 268.125 218.128,268.832 218.807,269.027 218.612 C 269.104 218.535,269.167 218.576,269.167 218.704 C 269.167 218.831,269.706 219.368,270.365 219.897 C 271.023 220.426,271.703 220.973,271.875 221.112 C 272.823 221.878,274.979 223.333,275.165 223.333 C 275.284 223.333,275.413 223.416,275.451 223.516 C 275.519 223.695,279.063 226.042,279.265 226.042 C 279.322 226.042,280.002 226.430,280.778 226.906 C 282.396 227.898,290.958 232.098,293.438 233.117 C 294.354 233.493,295.479 233.968,295.938 234.171 C 298.077 235.121,303.823 237.543,304.063 237.595 C 304.177 237.621,304.974 237.986,305.833 238.406 C 306.692 238.827,307.533 239.119,307.701 239.054 C 307.870 238.989,307.939 239.006,307.854 239.090 C 307.696 239.249,310.470 240.625,310.948 240.625 C 311.095 240.625,311.251 240.731,311.294 240.861 C 311.337 240.991,311.664 241.108,312.020 241.121 C 312.376 241.135,312.624 241.216,312.572 241.301 C 312.519 241.387,312.740 241.572,313.061 241.714 C 313.383 241.855,313.693 242.025,313.750 242.092 C 313.807 242.158,314.510 242.539,315.313 242.939 C 316.115 243.339,317.167 243.919,317.652 244.229 C 318.137 244.538,318.586 244.792,318.650 244.792 C 318.715 244.792,318.881 244.885,319.019 244.998 C 319.158 245.112,320.021 245.755,320.938 246.427 C 323.534 248.331,326.667 251.867,326.667 252.893 C 326.667 253.020,326.776 253.125,326.910 253.125 C 327.043 253.125,327.090 253.188,327.013 253.264 C 326.937 253.341,327.029 253.575,327.219 253.785 C 327.409 253.995,327.508 254.167,327.438 254.167 C 327.369 254.167,327.446 254.612,327.610 255.156 C 328.300 257.440,328.527 260.699,328.130 262.604 C 327.694 264.690,326.474 267.689,325.774 268.391 C 325.569 268.597,325.457 268.856,325.526 268.966 C 325.594 269.076,325.503 269.167,325.325 269.167 C 325.146 269.167,325.000 269.245,325.000 269.341 C 325.000 269.437,324.584 269.925,324.077 270.426 C 323.569 270.926,323.208 271.425,323.276 271.533 C 323.343 271.642,323.288 271.663,323.153 271.580 C 322.886 271.415,321.608 272.372,321.817 272.581 C 321.887 272.651,321.726 272.708,321.458 272.708 C 321.191 272.708,321.033 272.769,321.107 272.843 C 321.181 272.917,320.767 273.198,320.187 273.467 C 319.606 273.735,318.975 274.125,318.785 274.331 C 318.594 274.538,318.509 274.598,318.596 274.464 C 318.684 274.331,317.981 274.536,317.034 274.920 C 316.087 275.304,315.008 275.677,314.635 275.749 C 314.263 275.821,313.958 275.940,313.958 276.013 C 313.958 276.086,313.660 276.167,313.297 276.192 C 312.933 276.218,312.560 276.359,312.467 276.505 C 312.339 276.706,312.297 276.709,312.295 276.516 C 312.292 276.325,312.150 276.314,311.734 276.472 C 310.849 276.809,307.916 276.982,303.750 276.944 C 300.127 276.911,299.184 276.850,297.917 276.571 C 297.630 276.507,297.115 276.415,296.771 276.365 C 296.427 276.315,295.443 276.072,294.583 275.825 C 293.724 275.577,292.927 275.352,292.813 275.323 C 292.570 275.263,292.366 275.183,290.011 274.225 C 289.043 273.832,288.088 273.497,287.890 273.482 C 287.691 273.467,287.568 273.393,287.615 273.316 C 287.698 273.182,284.345 271.135,284.200 271.231 C 284.161 271.257,284.020 271.136,283.887 270.963 C 283.754 270.791,283.083 270.220,282.396 269.695 C 281.708 269.170,280.170 267.782,278.978 266.610 C 277.785 265.438,276.886 264.611,276.979 264.772 C 277.095 264.973,277.069 265.016,276.896 264.909 C 276.758 264.823,276.680 264.648,276.723 264.518 C 276.766 264.389,276.607 264.074,276.370 263.818 C 275.760 263.163,275.569 262.922,274.694 261.703 C 274.268 261.110,273.835 260.677,273.733 260.740 C 273.630 260.803,273.595 260.730,273.653 260.576 C 273.712 260.423,273.570 260.094,273.338 259.845 C 273.106 259.596,272.917 259.337,272.917 259.270 C 272.917 259.203,272.495 258.532,271.979 257.779 C 271.464 257.026,271.042 256.327,271.042 256.226 C 271.042 255.955,270.258 256.001,270.084 256.282 C 269.986 256.441,270.028 256.466,270.208 256.354 C 270.393 256.240,270.431 256.267,270.326 256.437 C 270.240 256.575,270.062 256.649,269.929 256.600 C 269.639 256.493,268.125 257.291,268.125 257.551 C 268.125 257.651,268.038 257.679,267.931 257.613 C 267.824 257.547,267.677 257.590,267.604 257.708 C 267.531 257.826,267.173 258.059,266.809 258.225 C 266.444 258.391,265.724 258.776,265.208 259.080 C 264.693 259.384,263.286 260.199,262.083 260.890 C 260.880 261.582,259.864 262.227,259.826 262.325 C 259.788 262.423,259.681 262.456,259.589 262.399 C 259.497 262.343,259.306 262.436,259.165 262.606 C 259.023 262.777,258.775 262.917,258.614 262.917 C 258.452 262.917,258.272 263.042,258.214 263.194 C 258.155 263.347,257.994 263.473,257.856 263.474 C 257.479 263.476,255.208 264.802,255.208 265.020 C 255.208 265.124,255.033 265.208,254.820 265.208 C 254.606 265.208,254.208 265.382,253.934 265.594 C 253.661 265.806,253.343 266.017,253.227 266.063 C 252.336 266.415,250.870 267.391,250.976 267.562 C 251.051 267.684,251.002 267.708,250.858 267.619 C 250.626 267.476,248.524 268.648,248.368 269.008 C 248.329 269.097,248.213 269.117,248.109 269.053 C 248.005 268.988,247.691 269.165,247.410 269.446 C 247.130 269.726,246.854 269.910,246.798 269.853 C 246.664 269.720,245.417 270.457,245.417 270.670 C 245.417 270.760,245.243 270.833,245.030 270.833 C 244.818 270.833,244.396 271.063,244.093 271.344 C 243.790 271.625,243.542 271.810,243.542 271.756 C 243.542 271.701,243.260 271.801,242.917 271.979 C 242.033 272.436,242.170 272.980,243.864 275.729 C 244.146 276.188,244.565 276.891,244.795 277.292 C 245.389 278.329,245.711 278.838,245.848 278.958 C 245.914 279.016,246.391 279.719,246.908 280.521 C 248.089 282.353,250.355 285.208,250.628 285.208 C 250.741 285.208,250.833 285.339,250.833 285.500 C 250.833 285.894,257.064 292.120,257.307 291.969 C 257.413 291.904,257.500 291.948,257.500 292.066 C 257.500 292.185,257.992 292.665,258.594 293.133 C 259.195 293.601,259.854 294.120,260.058 294.286 C 261.199 295.219,262.162 295.810,262.350 295.693 C 262.468 295.620,262.505 295.657,262.431 295.776 C 262.358 295.894,262.672 296.238,263.128 296.540 C 263.585 296.842,263.958 297.023,263.958 296.942 C 263.958 296.861,264.076 296.942,264.219 297.121 C 264.362 297.299,264.992 297.716,265.618 298.046 C 266.244 298.376,266.878 298.757,267.026 298.894 C 267.175 299.030,267.623 299.260,268.023 299.404 C 268.423 299.549,268.750 299.723,268.750 299.791 C 268.750 299.908,271.035 301.030,273.542 302.144 C 276.097 303.279,283.212 305.692,283.704 305.590 C 283.786 305.573,283.995 305.611,284.167 305.676 C 284.565 305.825,286.196 306.222,286.875 306.335 C 287.161 306.383,287.815 306.519,288.328 306.637 C 288.979 306.787,289.302 306.785,289.397 306.631 C 289.490 306.481,289.558 306.488,289.613 306.651 C 289.657 306.783,290.442 307.022,291.357 307.181 C 292.927 307.455,293.723 307.555,296.458 307.824 C 297.089 307.886,298.003 307.982,298.490 308.037 C 299.121 308.108,299.376 308.060,299.378 307.870 C 299.380 307.707,299.440 307.684,299.534 307.813 C 299.788 308.158,308.678 308.515,308.466 308.171 C 308.416 308.089,309.326 308.019,310.489 308.016 C 314.945 308.007,321.303 307.117,326.042 305.839 C 326.901 305.607,327.763 305.377,327.958 305.327 C 329.247 304.997,330.625 304.479,330.625 304.325 C 330.625 304.224,330.708 304.193,330.809 304.256 C 331.034 304.395,333.272 303.644,333.707 303.282 C 333.881 303.139,334.055 303.044,334.095 303.073 C 334.134 303.102,334.190 303.118,334.219 303.109 C 334.247 303.100,334.449 303.060,334.667 303.019 C 334.884 302.978,335.129 302.836,335.211 302.704 C 335.292 302.572,335.395 302.480,335.440 302.499 C 335.648 302.589,336.667 302.225,336.667 302.061 C 336.667 301.959,336.737 301.896,336.823 301.922 C 337.054 301.992,339.583 300.756,339.583 300.573 C 339.583 300.487,339.706 300.417,339.857 300.417 C 340.183 300.417,342.990 298.759,343.090 298.508 C 343.128 298.412,343.253 298.333,343.368 298.333 C 343.676 298.333,347.110 295.798,347.232 295.481 C 347.289 295.331,347.445 295.208,347.577 295.208 C 347.950 295.208,350.625 292.714,350.625 292.367 C 350.625 292.197,350.703 292.107,350.799 292.166 C 350.993 292.286,353.519 289.604,354.358 288.388 C 354.654 287.958,355.005 287.491,355.138 287.348 C 355.646 286.807,357.334 284.139,357.233 284.038 C 357.175 283.980,357.350 283.692,357.622 283.398 C 357.894 283.105,358.071 282.790,358.016 282.700 C 357.960 282.610,357.989 282.504,358.081 282.466 C 358.316 282.367,359.167 280.675,359.167 280.306 C 359.167 280.138,359.260 280.000,359.375 280.000 C 359.490 280.000,359.564 279.930,359.540 279.844 C 359.517 279.758,359.661 279.380,359.862 279.004 C 360.062 278.629,360.169 278.230,360.100 278.119 C 360.032 278.008,360.062 277.917,360.168 277.917 C 360.410 277.917,361.915 273.339,361.949 272.498 C 361.963 272.155,362.035 271.875,362.110 271.875 C 362.223 271.875,362.403 271.075,362.626 269.583 C 362.651 269.411,362.778 268.755,362.907 268.125 C 363.633 264.569,363.572 254.529,362.794 249.688 C 362.721 249.229,362.606 248.763,362.540 248.652 C 362.473 248.541,362.396 248.082,362.368 247.632 C 362.340 247.181,362.226 246.569,362.115 246.271 C 362.004 245.973,361.799 245.145,361.658 244.432 C 361.505 243.652,361.318 243.187,361.190 243.266 C 361.068 243.342,361.041 243.295,361.126 243.157 C 361.295 242.883,360.347 239.956,359.834 239.167 C 359.647 238.880,359.490 238.552,359.484 238.438 C 359.457 237.900,358.904 236.676,358.736 236.780 C 358.632 236.844,358.608 236.736,358.684 236.539 C 358.784 236.277,358.747 236.227,358.545 236.352 C 358.373 236.458,358.319 236.442,358.402 236.307 C 358.703 235.821,355.745 230.951,355.262 231.137 C 354.996 231.239,354.986 231.205,355.204 230.942 C 355.438 230.661,355.366 230.547,354.983 230.589 C 354.916 230.596,354.861 230.487,354.861 230.347 C 354.861 229.907,354.132 228.955,353.903 229.096 C 353.784 229.170,353.746 229.133,353.821 229.013 C 353.895 228.893,353.487 228.296,352.915 227.686 C 352.343 227.077,351.875 226.538,351.875 226.490 C 351.875 226.259,349.264 223.794,349.117 223.885 C 349.024 223.942,348.974 223.865,349.005 223.713 C 349.037 223.562,348.945 223.461,348.802 223.490 C 348.659 223.518,348.565 223.469,348.594 223.380 C 348.638 223.243,347.949 222.589,345.833 220.755 C 345.661 220.606,345.193 220.258,344.792 219.982 C 344.391 219.705,343.752 219.219,343.373 218.902 C 342.994 218.584,342.581 218.388,342.455 218.465 C 342.318 218.550,342.287 218.510,342.377 218.364 C 342.463 218.224,342.367 218.063,342.149 217.982 C 341.941 217.906,341.724 217.778,341.667 217.698 C 341.394 217.318,338.843 215.833,338.615 215.921 C 338.455 215.982,338.399 215.904,338.470 215.719 C 338.534 215.553,338.487 215.417,338.366 215.417 C 338.245 215.417,337.704 215.119,337.165 214.754 C 336.625 214.390,336.030 214.081,335.842 214.067 C 335.654 214.053,335.296 213.838,335.046 213.588 C 334.791 213.332,334.455 213.188,334.276 213.256 C 334.076 213.333,333.958 213.259,333.958 213.057 C 333.958 212.762,333.229 212.363,332.865 212.459 C 332.779 212.481,332.708 212.409,332.708 212.297 C 332.708 212.018,331.494 211.412,331.244 211.566 C 331.133 211.635,331.042 211.599,331.042 211.486 C 331.042 211.279,328.716 210.050,328.565 210.176 C 328.520 210.213,328.427 210.161,328.357 210.059 C 328.103 209.689,325.578 208.515,325.282 208.629 C 325.115 208.693,325.027 208.666,325.087 208.569 C 325.147 208.472,324.472 208.059,323.588 207.651 C 319.541 205.783,318.751 205.428,317.203 204.784 C 316.295 204.406,315.427 204.097,315.276 204.097 C 315.124 204.097,315.000 204.030,315.000 203.949 C 315.000 203.785,313.997 203.333,313.461 203.254 C 313.274 203.227,313.009 203.093,312.873 202.956 C 312.737 202.820,312.500 202.708,312.347 202.708 C 312.194 202.708,311.845 202.562,311.572 202.383 C 311.299 202.204,310.950 202.074,310.798 202.095 C 310.273 202.166,309.976 202.083,310.091 201.897 C 310.154 201.794,310.058 201.654,309.878 201.584 C 309.385 201.395,309.230 201.438,309.583 201.667 C 309.774 201.790,309.799 201.870,309.646 201.872 C 309.508 201.874,309.321 201.742,309.229 201.579 C 309.013 201.197,306.913 200.368,306.619 200.550 C 306.485 200.633,306.454 200.592,306.543 200.449 C 306.675 200.234,306.426 200.115,305.990 200.184 C 305.904 200.197,305.833 200.126,305.833 200.025 C 305.833 199.925,305.529 199.721,305.156 199.573 C 304.784 199.424,303.284 198.713,301.823 197.991 C 300.362 197.270,299.165 196.747,299.163 196.829 C 299.162 196.912,299.091 196.885,299.007 196.771 C 298.923 196.656,298.630 196.436,298.357 196.282 C 298.083 196.128,297.553 195.830,297.179 195.620 C 296.805 195.410,296.427 195.302,296.341 195.379 C 296.254 195.457,296.240 195.421,296.309 195.299 C 296.379 195.176,296.136 194.901,295.770 194.686 C 294.622 194.013,293.069 192.750,291.733 191.403 C 290.005 189.661,289.984 189.634,289.287 188.328 C 288.952 187.701,288.593 187.130,288.488 187.060 C 288.383 186.990,288.313 186.871,288.331 186.796 C 288.408 186.487,288.078 185.417,287.907 185.417 C 287.805 185.417,287.781 185.261,287.854 185.070 C 287.928 184.879,287.901 184.777,287.796 184.842 C 287.690 184.907,287.589 184.641,287.570 184.251 C 287.505 182.883,287.452 182.394,287.351 182.226 C 287.163 181.909,287.260 178.653,287.489 177.643 C 287.614 177.091,287.662 176.552,287.596 176.445 C 287.530 176.338,287.575 176.250,287.696 176.250 C 287.817 176.250,287.917 176.122,287.917 175.965 C 287.917 175.430,288.828 173.439,289.599 172.292 C 293.195 166.934,300.654 164.372,308.372 165.842 C 308.981 165.958,309.750 166.100,310.081 166.159 C 310.412 166.218,310.880 166.372,311.122 166.502 C 311.364 166.631,311.563 166.715,311.563 166.687 C 311.563 166.622,312.594 166.998,313.646 167.445 C 314.840 167.954,317.005 169.362,318.313 170.481 C 318.931 171.011,319.532 171.386,319.647 171.315 C 319.762 171.244,319.801 171.274,319.735 171.382 C 319.668 171.490,319.958 171.963,320.380 172.435 C 322.228 174.502,323.687 176.495,325.002 178.750 C 325.503 179.609,325.933 180.343,325.958 180.380 C 326.011 180.460,326.781 180.032,328.280 179.089 C 328.881 178.710,329.303 178.324,329.218 178.230 C 329.132 178.135,329.176 178.124,329.315 178.203 C 329.454 178.283,329.759 178.158,329.992 177.924 C 330.226 177.691,330.417 177.561,330.417 177.636 C 330.417 177.712,330.581 177.637,330.781 177.471 C 330.982 177.305,331.404 177.041,331.719 176.883 C 332.034 176.725,332.292 176.518,332.292 176.423 C 332.292 176.328,332.382 176.250,332.493 176.250 C 332.864 176.250,334.574 175.060,334.422 174.908 C 334.339 174.825,334.377 174.788,334.506 174.826 C 334.798 174.913,337.292 173.356,337.292 173.088 C 337.292 172.980,337.371 172.941,337.468 173.001 C 337.566 173.061,337.847 172.923,338.093 172.693 C 338.340 172.463,338.542 172.340,338.542 172.420 C 338.542 172.500,338.706 172.425,338.906 172.255 C 339.107 172.085,339.710 171.695,340.246 171.389 C 340.782 171.083,341.346 170.716,341.499 170.573 C 341.652 170.430,342.123 170.136,342.546 169.920 C 342.968 169.705,343.502 169.353,343.732 169.139 C 343.961 168.925,344.247 168.750,344.366 168.750 C 344.486 168.750,344.583 168.656,344.583 168.542 C 344.583 168.427,344.672 168.333,344.781 168.333 C 344.890 168.333,345.851 167.776,346.917 167.094 C 347.982 166.412,349.481 165.474,350.247 165.009 C 351.013 164.545,351.763 164.048,351.913 163.905 C 352.064 163.763,352.445 163.513,352.760 163.350 C 353.427 163.006,353.445 162.828,352.905 161.979 C 352.685 161.635,352.411 161.138,352.295 160.873 C 352.179 160.608,351.991 160.449,351.878 160.519 C 351.759 160.592,351.724 160.509,351.796 160.323 C 351.864 160.145,351.816 160.000,351.689 160.000 C 351.562 160.000,351.458 159.877,351.458 159.727 C 351.458 159.577,351.276 159.258,351.054 159.020 C 350.832 158.781,350.683 158.553,350.723 158.512 C 350.763 158.471,350.257 157.665,349.598 156.721 C 348.938 155.776,348.337 155.065,348.262 155.141 C 348.187 155.216,348.125 155.128,348.125 154.945 C 348.125 154.763,347.803 154.272,347.410 153.855 C 347.017 153.439,346.666 153.033,346.629 152.955 C 346.592 152.877,346.485 152.838,346.391 152.870 C 346.296 152.901,346.275 152.837,346.343 152.727 C 346.470 152.522,341.316 147.083,340.995 147.083 C 340.897 147.083,340.422 146.692,339.940 146.214 C 338.825 145.110,337.498 144.143,337.280 144.278 C 337.188 144.335,337.044 144.272,336.961 144.138 C 336.859 143.972,336.905 143.949,337.103 144.064 C 337.628 144.368,337.196 143.995,336.392 143.449 C 335.960 143.156,335.528 142.917,335.433 142.917 C 335.337 142.917,335.144 142.777,335.002 142.606 C 334.860 142.436,334.661 142.348,334.560 142.410 C 334.458 142.473,334.375 142.421,334.375 142.293 C 334.375 142.166,334.070 141.921,333.698 141.749 C 333.326 141.576,332.646 141.208,332.188 140.929 C 331.729 140.651,331.190 140.422,330.990 140.420 C 330.789 140.418,330.625 140.340,330.625 140.247 C 330.625 139.990,328.381 139.113,328.127 139.269 C 328.006 139.345,327.932 139.282,327.964 139.130 C 327.995 138.978,327.880 138.854,327.708 138.854 C 327.536 138.854,327.349 138.799,327.292 138.732 C 326.939 138.319,319.898 136.238,319.212 136.344 C 319.015 136.374,318.800 136.315,318.733 136.213 C 318.666 136.110,318.196 136.002,317.688 135.972 C 317.181 135.943,316.673 135.864,316.560 135.797 C 315.579 135.216,298.688 134.397,299.030 134.947 M188.542 189.354 L 188.542 242.041 189.298 243.156 C 198.205 256.275,192.395 275.543,178.220 279.894 C 162.335 284.771,146.566 276.390,144.665 262.060 C 144.590 261.500,144.446 261.042,144.344 261.042 C 144.125 261.042,142.454 262.103,142.268 262.360 C 142.198 262.456,142.074 262.514,141.992 262.489 C 141.679 262.390,140.207 263.372,140.342 263.589 C 140.424 263.722,140.384 263.754,140.243 263.668 C 139.982 263.506,138.125 264.509,138.125 264.811 C 138.125 264.915,138.055 264.979,137.969 264.952 C 137.654 264.856,136.062 265.907,136.188 266.127 C 136.259 266.252,136.243 266.288,136.153 266.207 C 135.947 266.020,134.375 266.809,134.375 267.100 C 134.375 267.219,134.292 267.265,134.191 267.203 C 134.090 267.140,133.771 267.275,133.481 267.503 C 133.192 267.730,132.899 267.917,132.831 267.917 C 132.485 267.917,130.847 269.113,130.985 269.265 C 131.074 269.362,131.014 269.366,130.854 269.272 C 130.663 269.162,130.461 269.241,130.272 269.499 C 130.113 269.717,129.939 269.872,129.887 269.844 C 129.662 269.721,129.359 269.806,129.458 269.965 C 129.517 270.061,129.452 270.141,129.314 270.144 C 129.043 270.150,126.458 271.655,126.458 271.807 C 126.458 271.858,126.567 271.833,126.699 271.751 C 126.853 271.656,126.883 271.694,126.782 271.857 C 126.695 271.997,126.504 272.065,126.356 272.009 C 126.208 271.952,125.900 272.081,125.670 272.294 C 125.440 272.508,125.196 272.626,125.126 272.557 C 125.057 272.487,125.000 272.540,125.000 272.674 C 125.000 272.807,124.930 272.895,124.844 272.869 C 124.543 272.777,122.935 273.819,123.061 274.024 C 123.132 274.138,123.087 274.168,122.961 274.090 C 122.715 273.938,119.172 276.028,119.168 276.327 C 119.165 276.690,121.778 281.514,122.031 281.611 C 122.174 281.666,122.297 281.865,122.304 282.054 C 122.310 282.242,122.521 282.692,122.772 283.055 C 123.024 283.417,123.778 284.524,124.448 285.514 C 125.118 286.504,125.844 287.425,126.062 287.561 C 126.280 287.697,126.458 287.927,126.458 288.071 C 126.458 288.215,126.552 288.333,126.667 288.333 C 126.781 288.333,126.875 288.454,126.875 288.601 C 126.875 289.402,133.899 296.231,134.403 295.920 C 134.553 295.828,134.592 295.859,134.504 296.001 C 133.687 297.324,147.785 304.723,153.646 306.047 C 154.104 306.151,155.276 306.423,156.250 306.652 C 162.407 308.102,168.966 308.514,177.915 308.013 C 179.231 307.940,180.381 307.834,180.470 307.779 C 180.559 307.724,181.076 307.638,181.618 307.589 C 182.160 307.539,182.839 307.450,183.125 307.391 C 183.411 307.331,184.053 307.232,184.551 307.171 C 185.049 307.109,185.680 306.973,185.954 306.869 C 186.228 306.764,186.891 306.620,187.426 306.547 C 187.961 306.475,189.158 306.186,190.085 305.907 C 191.012 305.627,191.911 305.367,192.083 305.328 C 192.255 305.289,192.380 305.176,192.361 305.076 C 192.342 304.977,192.623 304.883,192.986 304.868 C 194.098 304.821,198.883 302.783,201.354 301.304 C 201.698 301.098,202.374 300.706,202.856 300.431 C 203.338 300.157,203.676 299.840,203.605 299.726 C 203.535 299.612,203.574 299.579,203.693 299.652 C 203.812 299.726,204.271 299.509,204.715 299.171 C 205.158 298.833,205.990 298.202,206.563 297.768 C 208.095 296.608,211.046 293.718,210.915 293.506 C 210.853 293.405,210.881 293.349,210.978 293.380 C 211.295 293.483,212.136 292.545,211.969 292.275 C 211.872 292.118,211.897 292.072,212.033 292.156 C 212.155 292.232,212.566 291.895,212.945 291.407 C 213.325 290.920,213.731 290.452,213.849 290.368 C 213.966 290.284,213.997 290.213,213.916 290.212 C 213.836 290.210,213.998 289.962,214.277 289.661 C 214.556 289.360,214.738 289.040,214.682 288.950 C 214.626 288.860,214.652 288.754,214.738 288.716 C 214.996 288.602,215.913 287.275,216.659 285.938 C 217.042 285.250,217.533 284.372,217.751 283.986 C 217.968 283.600,218.098 283.237,218.041 283.180 C 217.984 283.122,218.078 282.934,218.251 282.761 C 218.424 282.588,218.514 282.313,218.452 282.150 C 218.389 281.987,218.414 281.900,218.506 281.957 C 218.660 282.053,219.296 280.625,219.181 280.440 C 219.154 280.395,219.246 280.288,219.386 280.202 C 219.526 280.115,219.651 279.762,219.664 279.417 C 219.677 279.073,219.750 278.829,219.826 278.876 C 219.960 278.958,220.516 277.487,220.747 276.441 C 220.926 275.629,220.942 275.571,221.328 274.431 C 221.537 273.814,221.636 273.148,221.556 272.895 C 221.469 272.623,221.494 272.497,221.618 272.574 C 221.807 272.691,222.277 270.855,222.387 269.566 C 222.412 269.269,222.490 268.934,222.561 268.821 C 222.631 268.707,222.736 267.965,222.794 267.172 C 222.852 266.378,222.915 265.729,222.934 265.729 C 223.020 265.729,223.184 263.939,223.205 262.760 C 223.218 262.044,223.298 261.458,223.383 261.458 C 223.467 261.458,223.538 233.380,223.540 199.063 L 223.544 136.667 206.043 136.667 L 188.542 136.667 188.542 189.354 " stroke="none" fill="#54f383" fill-rule="evenodd"></path><path id="path4" d="" stroke="none" fill="#54f48c" fill-rule="evenodd"></path></g></svg>