<svg id="svg" version="1.1" xmlns="http://www.w3.org/2000/svg" width="400" height="100" viewBox="0, 0, 400,100">
    <g id="svgg">
        <path id="path0"
              d="M366.917 38.349 C 366.367 38.427,365.692 38.524,365.417 38.563 C 364.221 38.736,363.083 39.065,361.796 39.611 C 361.037 39.933,360.285 40.236,360.125 40.285 C 359.965 40.333,359.833 40.433,359.833 40.508 C 359.833 40.583,359.669 40.696,359.468 40.760 C 357.350 41.432,354.101 45.228,352.842 48.500 C 351.104 53.017,351.925 60.842,354.434 63.680 C 354.562 63.825,354.667 63.992,354.667 64.053 C 354.667 64.388,356.842 66.677,358.250 67.826 C 360.554 69.704,363.589 71.304,369.250 73.627 C 375.286 76.104,377.624 78.106,377.806 80.954 C 377.874 82.022,377.450 83.833,377.132 83.833 C 377.059 83.833,377.000 83.939,377.000 84.069 C 377.000 84.378,375.598 85.608,374.754 86.040 C 371.676 87.614,366.633 87.314,363.500 85.371 C 361.545 84.159,360.586 83.163,358.516 80.199 C 358.220 79.775,357.926 79.898,355.000 81.660 C 354.863 81.743,354.000 82.239,353.083 82.763 C 349.860 84.604,348.333 85.542,348.333 85.682 C 348.333 85.994,350.211 88.947,351.061 89.970 C 359.819 100.520,380.170 100.817,387.416 90.500 C 392.291 83.559,390.302 71.672,383.549 67.389 C 383.293 67.226,382.708 66.819,382.250 66.484 C 381.129 65.664,380.296 65.195,377.833 63.999 C 376.688 63.442,375.629 62.921,375.482 62.840 C 375.334 62.759,374.022 62.192,372.565 61.579 C 370.255 60.608,368.196 59.620,367.083 58.951 C 361.832 55.791,363.567 49.000,369.625 49.000 C 372.553 49.000,374.707 50.273,376.430 53.021 C 376.767 53.559,377.104 54.000,377.179 54.000 C 377.321 54.000,379.523 52.666,379.667 52.493 C 379.712 52.438,379.863 52.340,380.000 52.277 C 380.137 52.213,380.925 51.718,381.750 51.176 C 382.575 50.634,383.981 49.731,384.875 49.168 C 385.827 48.569,386.500 48.035,386.500 47.879 C 386.500 47.602,385.518 45.958,385.295 45.861 C 385.224 45.831,385.167 45.699,385.167 45.569 C 385.167 45.440,385.108 45.333,385.036 45.333 C 384.964 45.333,384.783 45.127,384.633 44.875 C 381.972 40.401,373.762 37.377,366.917 38.349 M329.875 38.944 C 329.710 39.010,329.667 42.364,329.667 54.928 L 329.667 70.829 331.142 72.290 C 335.459 76.564,335.584 83.248,331.424 87.431 C 325.948 92.939,315.495 90.683,313.400 83.542 C 313.071 82.423,313.256 82.394,310.746 83.955 C 310.565 84.067,309.942 84.442,309.363 84.788 C 307.943 85.635,307.855 85.689,307.045 86.212 C 306.657 86.462,306.258 86.667,306.159 86.667 C 305.745 86.667,306.678 88.515,308.052 90.417 C 310.423 93.699,314.381 96.469,317.680 97.154 C 318.007 97.222,318.355 97.327,318.451 97.386 C 318.839 97.626,322.341 98.000,324.154 97.995 C 326.798 97.987,329.049 97.646,331.583 96.867 C 335.218 95.749,338.873 92.425,340.285 88.950 C 342.038 84.640,342.000 85.278,342.000 60.223 L 342.000 38.833 336.042 38.846 C 332.765 38.854,329.990 38.897,329.875 38.944 "
              stroke="none" fill="#54f384" fill-rule="evenodd"></path>
        <path id="path1"
              d="M320.806 73.153 C 314.826 75.066,314.469 84.478,320.292 86.670 C 326.235 88.908,331.883 84.797,331.017 78.865 C 330.339 74.224,325.654 71.603,320.806 73.153 "
              stroke="none" fill="#fbe35b" fill-rule="evenodd"></path>
        <path id="path2"
              d="M106.079 32.417 C 106.079 39.108,106.100 41.822,106.125 38.446 C 106.150 35.071,106.150 29.596,106.125 26.279 C 106.100 22.963,106.079 25.725,106.079 32.417 M321.824 69.678 C 316.885 70.203,313.036 74.476,312.714 79.793 C 312.438 84.333,315.867 88.881,320.500 90.120 C 329.933 92.642,337.450 83.708,333.221 75.000 C 331.730 71.930,329.164 70.077,325.931 69.735 C 323.555 69.483,323.646 69.485,321.824 69.678 M326.178 73.102 C 333.534 75.282,332.399 86.435,324.750 87.142 C 319.489 87.629,316.151 84.855,316.155 80.000 C 316.160 74.752,320.852 71.523,326.178 73.102 "
              stroke="none" fill="#4d4f4d" fill-rule="evenodd"></path>
        <path id="path3"
              d="M69.749 19.875 C 69.700 20.081,69.679 33.337,69.704 49.333 L 69.750 78.417 75.464 78.461 L 81.177 78.504 81.111 64.377 C 81.031 47.272,81.065 48.960,80.756 46.763 C 80.365 43.981,80.370 43.959,81.208 45.008 C 83.730 48.164,85.965 50.579,88.836 53.251 C 90.391 54.699,92.146 56.345,95.673 59.667 C 97.181 61.087,98.978 62.775,99.664 63.417 C 101.036 64.699,102.780 66.345,105.586 69.008 C 106.596 69.966,108.133 71.419,109.003 72.237 C 109.872 73.055,111.146 74.260,111.833 74.914 C 116.007 78.889,116.145 79.000,116.934 79.000 L 117.668 79.000 117.625 49.542 L 117.583 20.083 111.875 20.039 L 106.167 19.996 106.170 33.956 C 106.171 41.634,106.242 48.592,106.326 49.417 C 106.411 50.242,106.529 51.629,106.590 52.500 C 106.650 53.371,106.741 54.158,106.791 54.250 C 106.954 54.548,106.590 54.133,105.254 52.500 C 104.542 51.629,103.615 50.504,103.195 50.000 C 102.407 49.055,99.671 46.299,97.486 44.250 C 96.802 43.608,95.165 42.071,93.850 40.833 C 92.534 39.596,91.186 38.330,90.854 38.020 C 90.522 37.711,89.684 36.923,88.992 36.270 C 88.300 35.618,86.578 33.996,85.165 32.667 C 83.752 31.337,82.021 29.704,81.318 29.038 C 80.616 28.371,79.889 27.693,79.702 27.531 C 79.515 27.369,78.253 26.189,76.896 24.910 C 75.540 23.630,73.752 21.946,72.923 21.167 C 72.095 20.387,71.392 19.694,71.361 19.625 C 71.211 19.288,69.840 19.500,69.749 19.875 M253.549 19.708 C 253.462 19.823,253.218 20.329,253.007 20.833 C 252.797 21.337,252.371 22.299,252.062 22.971 C 251.753 23.642,251.500 24.263,251.500 24.351 C 251.500 24.440,251.379 24.696,251.232 24.921 C 251.084 25.146,251.008 25.448,251.063 25.591 C 251.118 25.734,251.103 25.814,251.031 25.769 C 250.958 25.724,250.685 26.189,250.424 26.802 C 250.162 27.415,249.660 28.540,249.308 29.302 C 248.955 30.063,248.667 30.743,248.667 30.812 C 248.667 30.881,248.478 31.329,248.247 31.808 C 248.016 32.287,247.570 33.295,247.256 34.048 C 246.942 34.801,246.494 35.810,246.259 36.291 C 246.025 36.772,245.833 37.207,245.833 37.258 C 245.833 37.310,245.692 37.666,245.518 38.051 C 244.704 39.858,244.192 41.167,244.299 41.169 C 244.364 41.171,244.337 41.227,244.240 41.294 C 244.142 41.362,243.741 42.167,243.347 43.083 C 242.953 44.000,242.460 45.125,242.251 45.583 C 241.895 46.365,241.377 47.546,240.971 48.500 C 240.874 48.729,240.738 49.032,240.668 49.173 C 240.599 49.313,240.112 50.438,239.588 51.673 C 239.063 52.907,238.379 54.462,238.067 55.129 C 237.755 55.795,237.500 56.415,237.500 56.506 C 237.500 56.597,237.425 56.801,237.332 56.961 C 237.047 57.452,234.333 63.694,234.333 63.858 C 234.333 63.942,234.227 64.178,234.097 64.381 C 233.966 64.584,233.835 64.900,233.805 65.083 C 233.775 65.267,233.704 65.454,233.649 65.500 C 233.502 65.621,232.500 67.825,232.500 68.028 C 232.500 68.122,232.391 68.398,232.258 68.641 C 231.986 69.139,231.000 71.320,231.000 71.424 C 231.000 71.461,230.820 71.887,230.599 72.370 C 230.379 72.854,230.011 73.662,229.782 74.167 C 228.984 75.920,228.167 77.983,228.167 78.243 C 228.167 78.476,228.796 78.500,234.039 78.460 L 239.912 78.417 240.097 78.000 C 240.198 77.771,240.799 76.329,241.432 74.795 L 242.583 72.007 254.231 72.045 L 265.878 72.083 266.522 73.571 C 266.877 74.389,267.167 75.120,267.167 75.196 C 267.167 75.271,267.381 75.801,267.644 76.375 C 267.906 76.948,268.215 77.660,268.331 77.958 L 268.540 78.500 274.937 78.500 C 279.147 78.500,281.333 78.442,281.333 78.331 C 281.333 78.238,281.267 78.032,281.187 77.873 C 281.032 77.568,280.673 76.771,279.913 75.042 C 279.661 74.469,279.385 74.000,279.301 74.000 C 279.216 74.000,279.186 73.937,279.233 73.861 C 279.280 73.784,279.180 73.428,279.010 73.069 C 278.841 72.710,278.502 71.967,278.257 71.417 C 277.705 70.178,277.526 69.786,276.677 67.968 C 276.305 67.172,276.000 66.477,276.000 66.424 C 276.000 66.372,275.658 65.598,275.240 64.706 C 274.302 62.704,274.135 62.339,273.577 61.083 C 273.333 60.533,272.908 59.596,272.632 59.000 C 271.997 57.625,271.963 57.550,271.182 55.750 C 270.824 54.925,270.452 54.268,270.355 54.290 C 270.258 54.311,270.216 54.233,270.261 54.115 C 270.306 53.997,270.089 53.342,269.778 52.659 C 269.467 51.976,268.891 50.704,268.497 49.833 C 268.104 48.962,267.531 47.701,267.225 47.029 C 266.918 46.358,266.667 45.770,266.667 45.723 C 266.667 45.676,266.442 45.151,266.167 44.557 C 265.892 43.963,265.667 43.451,265.667 43.419 C 265.667 43.387,265.337 42.661,264.933 41.805 C 264.530 40.950,263.743 39.215,263.184 37.950 C 262.626 36.685,261.989 35.260,261.770 34.783 C 261.551 34.307,261.034 33.167,260.622 32.250 C 260.210 31.333,259.687 30.171,259.459 29.667 C 259.231 29.162,258.893 28.412,258.708 28.000 C 257.061 24.330,256.576 23.265,255.330 20.583 C 254.810 19.463,254.028 19.079,253.549 19.708 M71.583 20.667 C 72.035 21.125,72.513 21.500,72.647 21.500 C 72.780 21.500,72.848 21.540,72.799 21.590 C 72.722 21.667,73.736 22.688,75.326 24.136 C 75.559 24.348,76.837 25.566,78.167 26.843 C 79.496 28.120,80.664 29.165,80.762 29.166 C 80.860 29.166,81.103 29.354,81.302 29.583 C 81.501 29.813,81.625 30.000,81.576 30.000 C 81.528 30.000,81.767 30.244,82.108 30.542 C 82.762 31.114,82.881 31.225,86.319 34.497 C 87.521 35.642,88.661 36.636,88.852 36.706 C 89.042 36.777,89.237 36.984,89.285 37.167 C 89.333 37.350,89.435 37.500,89.511 37.500 C 89.741 37.500,90.503 38.275,90.386 38.392 C 90.327 38.451,90.364 38.500,90.470 38.500 C 90.576 38.500,91.132 38.959,91.706 39.520 C 92.280 40.081,93.162 40.943,93.667 41.436 C 94.171 41.930,94.645 42.333,94.721 42.333 C 94.797 42.333,95.332 42.821,95.911 43.417 C 96.489 44.012,97.014 44.500,97.076 44.500 C 97.219 44.500,97.667 44.940,97.667 45.079 C 97.667 45.136,97.873 45.369,98.125 45.598 C 98.377 45.826,98.931 46.344,99.355 46.748 C 99.779 47.153,100.171 47.440,100.226 47.385 C 100.281 47.330,100.377 47.428,100.441 47.601 C 100.585 47.995,101.586 49.000,101.835 49.000 C 101.937 49.000,101.973 49.076,101.916 49.168 C 101.859 49.260,101.929 49.381,102.073 49.436 C 102.216 49.491,102.333 49.640,102.333 49.768 C 102.333 49.896,102.446 50.000,102.583 50.000 C 102.721 50.000,102.833 50.096,102.833 50.213 C 102.833 50.330,102.987 50.537,103.175 50.672 C 103.362 50.806,103.703 51.235,103.932 51.625 C 104.160 52.015,104.419 52.333,104.507 52.333 C 104.595 52.333,104.667 52.446,104.667 52.583 C 104.667 52.721,104.779 52.833,104.917 52.833 C 105.054 52.833,105.167 52.945,105.167 53.082 C 105.167 53.219,105.317 53.424,105.500 53.539 C 105.683 53.653,105.833 53.838,105.833 53.948 C 105.833 54.059,105.935 54.210,106.059 54.283 C 106.183 54.357,106.373 54.585,106.482 54.792 C 106.808 55.413,107.376 55.290,107.254 54.625 C 107.120 53.894,107.046 53.080,106.922 50.970 C 106.864 49.990,106.752 48.790,106.672 48.303 C 106.593 47.815,106.519 41.323,106.509 33.875 L 106.491 20.333 111.912 20.333 L 117.333 20.333 117.333 49.500 L 117.333 78.667 116.865 78.667 C 116.416 78.667,115.333 77.828,115.333 77.480 C 115.333 77.399,115.263 77.352,115.177 77.375 C 115.090 77.398,114.609 76.985,114.108 76.458 C 113.606 75.931,113.148 75.500,113.090 75.500 C 113.032 75.500,112.517 75.031,111.946 74.458 C 110.799 73.309,109.278 71.935,109.095 71.884 C 109.031 71.865,108.815 71.640,108.617 71.384 C 108.418 71.127,107.996 70.692,107.680 70.417 C 107.363 70.142,106.575 69.408,105.927 68.787 C 104.278 67.204,104.259 67.187,103.686 66.764 C 103.403 66.555,103.215 66.341,103.268 66.288 C 103.321 66.235,103.141 66.076,102.869 65.935 C 102.597 65.794,102.328 65.559,102.271 65.412 C 102.211 65.256,102.083 65.195,101.960 65.266 C 101.844 65.332,101.806 65.325,101.875 65.249 C 102.031 65.077,101.509 64.475,101.311 64.597 C 101.232 64.646,101.167 64.618,101.167 64.535 C 101.167 64.384,99.379 62.500,99.236 62.500 C 99.194 62.500,98.221 61.563,97.074 60.417 C 95.926 59.271,94.941 58.333,94.884 58.333 C 94.828 58.333,94.414 57.924,93.964 57.425 C 93.515 56.925,93.000 56.470,92.821 56.413 C 92.642 56.356,92.538 56.240,92.591 56.155 C 92.643 56.070,92.618 56.000,92.533 56.000 C 92.449 56.000,91.867 55.494,91.239 54.875 C 90.611 54.256,90.038 53.750,89.965 53.750 C 89.893 53.750,89.822 53.675,89.809 53.583 C 89.796 53.492,89.589 53.267,89.350 53.083 C 89.110 52.900,88.540 52.357,88.082 51.876 C 87.625 51.395,87.188 51.001,87.112 51.001 C 87.036 51.000,86.749 50.775,86.474 50.500 C 86.199 50.225,86.029 50.000,86.095 50.000 C 86.162 50.000,85.978 49.772,85.686 49.493 C 85.381 49.202,85.070 49.036,84.953 49.104 C 84.841 49.168,84.805 49.159,84.872 49.085 C 84.939 49.011,84.834 48.812,84.638 48.642 C 84.418 48.451,84.367 48.333,84.505 48.333 C 84.627 48.333,84.466 48.090,84.146 47.792 C 83.826 47.494,83.348 46.950,83.084 46.583 C 82.819 46.217,82.426 45.748,82.209 45.542 C 81.993 45.335,81.863 45.167,81.921 45.167 C 81.978 45.167,81.795 44.972,81.513 44.735 C 81.231 44.498,81.000 44.206,81.000 44.086 C 81.000 43.967,80.887 43.826,80.750 43.773 C 80.612 43.720,80.500 43.575,80.500 43.450 C 80.500 43.325,80.401 43.222,80.280 43.222 C 80.009 43.222,80.089 46.682,80.364 46.852 C 80.463 46.913,80.488 47.173,80.425 47.463 C 80.364 47.741,80.381 48.010,80.463 48.060 C 80.545 48.111,80.630 48.812,80.653 49.618 C 80.675 50.424,80.702 51.271,80.712 51.500 C 80.722 51.729,80.716 57.823,80.699 65.042 L 80.667 78.167 75.333 78.167 L 70.000 78.167 70.000 49.000 L 70.000 19.833 70.381 19.833 C 70.618 19.833,71.073 20.149,71.583 20.667 M254.667 20.155 C 254.667 20.332,254.785 20.594,254.929 20.738 C 255.073 20.882,255.138 21.000,255.075 21.000 C 255.011 21.000,255.053 21.112,255.167 21.250 C 255.281 21.387,255.324 21.500,255.263 21.500 C 255.202 21.500,255.343 21.825,255.576 22.223 C 255.809 22.621,256.000 23.078,256.000 23.238 C 256.000 23.399,256.149 23.720,256.331 23.952 C 256.513 24.183,256.621 24.439,256.571 24.520 C 256.521 24.600,256.564 24.667,256.667 24.667 C 256.769 24.667,256.812 24.734,256.761 24.816 C 256.710 24.898,256.779 25.008,256.915 25.060 C 257.068 25.118,257.120 25.262,257.052 25.439 C 256.964 25.668,257.006 25.700,257.263 25.602 C 257.513 25.507,257.540 25.524,257.383 25.682 C 257.229 25.837,257.228 25.966,257.377 26.234 C 257.484 26.426,257.574 26.633,257.577 26.694 C 257.581 26.756,257.640 26.862,257.708 26.931 C 257.777 26.999,257.833 27.163,257.833 27.294 C 257.833 27.425,257.981 27.739,258.162 27.993 C 258.342 28.247,258.442 28.502,258.384 28.560 C 258.326 28.619,258.365 28.667,258.472 28.667 C 258.579 28.667,258.651 28.723,258.632 28.792 C 258.614 28.860,258.728 29.160,258.886 29.457 C 259.044 29.754,259.169 30.036,259.164 30.084 C 259.158 30.133,259.318 30.527,259.519 30.961 C 259.721 31.395,259.874 31.806,259.859 31.875 C 259.845 31.944,259.908 32.000,260.000 32.000 C 260.092 32.000,260.167 32.190,260.167 32.422 C 260.167 32.654,260.279 32.887,260.416 32.939 C 260.553 32.992,260.626 33.097,260.580 33.173 C 260.533 33.248,260.572 33.358,260.667 33.417 C 260.761 33.475,260.796 33.593,260.743 33.678 C 260.690 33.764,260.726 33.833,260.823 33.833 C 260.921 33.833,260.985 33.890,260.967 33.958 C 260.949 34.027,261.114 34.458,261.334 34.917 C 261.553 35.375,261.737 35.800,261.742 35.861 C 261.746 35.922,261.806 36.028,261.875 36.097 C 261.944 36.166,262.000 36.360,262.000 36.528 C 262.000 36.696,262.070 36.833,262.155 36.833 C 262.335 36.833,262.585 37.483,262.525 37.794 C 262.503 37.910,262.600 38.049,262.741 38.103 C 262.882 38.157,262.960 38.264,262.913 38.339 C 262.866 38.415,262.905 38.525,263.000 38.583 C 263.095 38.642,263.129 38.760,263.076 38.845 C 263.023 38.930,263.060 39.000,263.157 39.000 C 263.254 39.000,263.325 39.056,263.315 39.125 C 263.276 39.399,263.549 40.000,263.714 40.000 C 263.810 40.000,263.842 40.047,263.784 40.105 C 263.726 40.163,263.767 40.369,263.875 40.564 C 263.983 40.758,264.074 40.967,264.077 41.028 C 264.081 41.089,264.140 41.195,264.208 41.264 C 264.277 41.333,264.333 41.526,264.333 41.694 C 264.333 41.862,264.403 42.000,264.489 42.000 C 264.634 42.000,264.845 42.460,264.936 42.973 C 264.957 43.096,265.091 43.325,265.233 43.482 C 265.376 43.639,265.524 43.914,265.562 44.092 C 265.710 44.772,265.878 45.167,266.019 45.167 C 266.100 45.167,266.167 45.354,266.167 45.583 C 266.167 45.813,266.246 46.000,266.343 46.000 C 266.440 46.000,266.478 46.067,266.427 46.149 C 266.377 46.231,266.446 46.341,266.581 46.393 C 266.721 46.447,266.785 46.598,266.729 46.744 C 266.675 46.885,266.718 47.000,266.825 47.000 C 266.932 47.000,266.973 47.075,266.917 47.167 C 266.860 47.258,266.898 47.333,267.000 47.333 C 267.102 47.333,267.143 47.403,267.090 47.488 C 267.038 47.574,267.072 47.691,267.167 47.750 C 267.261 47.809,267.296 47.926,267.243 48.012 C 267.190 48.097,267.226 48.167,267.323 48.167 C 267.421 48.167,267.500 48.274,267.500 48.405 C 267.500 48.536,267.594 48.742,267.708 48.863 C 267.823 48.984,267.941 49.233,267.971 49.417 C 268.002 49.600,268.133 49.968,268.263 50.234 C 268.393 50.500,268.500 50.819,268.500 50.942 C 268.500 51.066,268.570 51.167,268.655 51.167 C 268.827 51.167,269.092 51.825,269.021 52.077 C 268.997 52.165,269.083 52.315,269.213 52.410 C 269.343 52.505,269.456 52.621,269.464 52.667 C 269.502 52.889,269.736 53.488,270.048 54.167 C 270.238 54.579,270.413 55.028,270.438 55.164 C 270.462 55.299,270.561 55.437,270.658 55.469 C 270.754 55.501,270.833 55.716,270.833 55.947 C 270.833 56.177,270.937 56.564,271.064 56.808 C 271.191 57.051,271.409 57.512,271.549 57.833 C 272.001 58.870,272.581 60.081,272.667 60.167 C 272.712 60.212,272.751 60.325,272.753 60.417 C 272.755 60.508,272.952 60.996,273.192 61.500 C 274.142 63.500,274.500 64.321,274.500 64.500 C 274.500 64.602,274.559 64.650,274.632 64.605 C 274.705 64.560,274.776 64.680,274.790 64.872 C 274.805 65.063,274.877 65.264,274.950 65.318 C 275.023 65.372,275.108 65.529,275.138 65.667 C 275.167 65.804,275.261 65.942,275.346 65.972 C 275.431 66.003,275.500 66.195,275.500 66.399 C 275.500 66.603,275.610 66.915,275.745 67.093 C 275.879 67.271,275.992 67.550,275.995 67.714 C 275.998 67.877,276.097 68.048,276.215 68.093 C 276.333 68.138,276.440 68.317,276.453 68.491 C 276.467 68.664,276.674 69.243,276.914 69.778 C 277.154 70.313,277.452 70.975,277.576 71.250 C 277.700 71.525,277.969 72.125,278.173 72.583 C 278.378 73.042,278.805 73.979,279.122 74.667 C 279.440 75.354,279.816 76.179,279.959 76.500 C 280.101 76.821,280.318 77.282,280.442 77.526 C 280.566 77.769,280.667 78.013,280.667 78.067 C 280.667 78.122,277.972 78.167,274.680 78.167 L 268.693 78.167 268.488 77.542 C 268.375 77.198,268.185 76.767,268.066 76.583 C 267.947 76.400,267.857 76.212,267.866 76.167 C 267.913 75.928,267.469 74.779,266.891 73.641 C 266.768 73.398,266.667 73.004,266.667 72.766 C 266.667 72.528,266.597 72.333,266.511 72.333 C 266.426 72.333,266.308 72.183,266.250 72.000 C 266.095 71.511,242.393 71.470,242.219 71.958 C 242.163 72.119,242.003 72.381,241.866 72.542 C 241.728 72.702,241.666 72.833,241.728 72.833 C 241.790 72.833,241.710 73.033,241.550 73.277 C 241.246 73.742,240.644 75.266,240.623 75.625 C 240.617 75.740,240.549 75.833,240.472 75.833 C 240.396 75.833,240.352 75.894,240.375 75.967 C 240.398 76.041,240.290 76.360,240.136 76.676 C 239.780 77.401,239.606 77.882,239.640 78.042 C 239.655 78.110,237.192 78.167,234.167 78.167 C 231.142 78.167,228.667 78.122,228.667 78.067 C 228.667 77.959,228.941 77.325,229.670 75.750 C 229.924 75.200,230.267 74.356,230.432 73.875 C 230.597 73.394,230.793 73.000,230.866 73.000 C 230.940 73.000,231.000 72.813,231.000 72.583 C 231.000 72.354,231.083 72.167,231.184 72.167 C 231.286 72.167,231.324 72.050,231.270 71.908 C 231.215 71.766,231.241 71.693,231.327 71.746 C 231.413 71.799,231.533 71.578,231.593 71.255 C 231.654 70.931,231.766 70.667,231.842 70.667 C 231.919 70.667,231.952 70.515,231.916 70.329 C 231.880 70.143,231.922 70.035,232.009 70.089 C 232.096 70.142,232.178 70.088,232.192 69.968 C 232.246 69.503,232.289 69.384,232.777 68.333 C 233.347 67.105,233.714 66.289,233.752 66.167 C 233.766 66.121,233.835 65.878,233.906 65.626 C 233.977 65.375,234.102 65.210,234.183 65.260 C 234.263 65.310,234.288 65.242,234.237 65.109 C 234.186 64.976,234.225 64.817,234.325 64.755 C 234.424 64.694,234.462 64.574,234.410 64.488 C 234.357 64.403,234.393 64.333,234.490 64.333 C 234.587 64.333,234.652 64.277,234.634 64.208 C 234.570 63.968,234.857 63.333,235.029 63.333 C 235.124 63.333,235.161 63.226,235.111 63.096 C 235.061 62.965,235.119 62.776,235.240 62.675 C 235.422 62.524,235.593 62.012,235.674 61.374 C 235.683 61.306,235.789 61.195,235.910 61.127 C 236.031 61.060,236.177 60.814,236.236 60.581 C 236.294 60.348,236.522 59.765,236.741 59.285 C 236.961 58.805,237.165 58.301,237.195 58.164 C 237.225 58.028,237.289 57.879,237.337 57.833 C 237.455 57.720,237.878 56.750,237.809 56.750 C 237.779 56.750,237.928 56.469,238.141 56.125 C 238.353 55.781,238.482 55.500,238.426 55.500 C 238.371 55.500,238.433 55.331,238.563 55.125 C 238.694 54.919,238.851 54.506,238.914 54.208 C 238.976 53.910,239.096 53.667,239.180 53.667 C 239.264 53.667,239.333 53.547,239.333 53.401 C 239.333 53.254,239.440 52.936,239.570 52.692 C 239.701 52.449,239.954 51.913,240.133 51.500 C 240.313 51.087,240.700 50.225,240.993 49.583 C 241.287 48.942,241.642 48.079,241.783 47.667 C 241.924 47.254,242.186 46.710,242.364 46.458 C 242.543 46.206,242.643 46.000,242.585 46.000 C 242.528 46.000,242.609 45.756,242.764 45.458 C 243.285 44.463,243.333 44.340,243.333 44.012 C 243.333 43.833,243.410 43.639,243.503 43.582 C 243.596 43.524,243.634 43.415,243.587 43.339 C 243.540 43.264,243.619 43.157,243.762 43.102 C 243.904 43.047,243.974 42.926,243.917 42.833 C 243.859 42.740,243.972 42.440,244.167 42.166 C 244.363 41.891,244.476 41.667,244.419 41.667 C 244.361 41.667,244.423 41.460,244.556 41.208 C 244.689 40.956,244.932 40.412,245.097 40.000 C 245.261 39.587,245.489 39.137,245.603 39.000 C 245.716 38.862,245.806 38.689,245.801 38.614 C 245.793 38.486,246.084 37.837,246.618 36.792 C 246.747 36.540,246.809 36.333,246.755 36.333 C 246.702 36.333,246.774 36.108,246.917 35.833 C 247.059 35.558,247.131 35.333,247.076 35.333 C 247.022 35.333,247.119 35.127,247.292 34.875 C 247.708 34.271,248.167 33.262,248.167 32.954 C 248.167 32.818,248.278 32.615,248.415 32.502 C 248.551 32.388,248.625 32.234,248.579 32.159 C 248.532 32.084,248.565 31.979,248.652 31.926 C 248.738 31.872,248.900 31.548,249.012 31.206 C 249.124 30.864,249.383 30.208,249.588 29.750 C 249.793 29.292,250.012 28.748,250.075 28.542 C 250.138 28.335,250.272 28.167,250.372 28.167 C 250.473 28.167,250.505 28.116,250.444 28.055 C 250.382 27.994,250.453 27.759,250.600 27.534 C 250.794 27.238,250.806 27.158,250.642 27.242 C 250.518 27.306,250.562 27.240,250.740 27.096 C 250.918 26.951,251.008 26.833,250.939 26.833 C 250.871 26.833,250.926 26.627,251.063 26.375 C 251.359 25.828,252.167 24.051,252.167 23.947 C 252.167 23.907,252.280 23.603,252.419 23.271 C 252.557 22.940,252.651 22.642,252.627 22.610 C 252.603 22.578,252.686 22.427,252.812 22.276 C 252.938 22.124,252.975 21.999,252.895 21.997 C 252.815 21.996,252.842 21.937,252.954 21.865 C 253.066 21.794,253.184 21.564,253.216 21.354 C 253.248 21.144,253.369 20.914,253.485 20.843 C 253.601 20.771,253.690 20.646,253.683 20.565 C 253.648 20.143,253.893 19.833,254.261 19.833 C 254.551 19.833,254.667 19.925,254.667 20.155 M11.235 20.228 C 10.905 21.088,11.281 60.322,11.636 62.131 C 13.116 69.657,16.890 74.321,23.949 77.347 C 26.844 78.588,36.481 79.913,35.912 78.992 C 35.857 78.903,35.197 78.837,34.447 78.846 C 31.523 78.881,26.266 78.067,25.544 77.467 C 25.428 77.371,25.333 77.336,25.333 77.389 C 25.333 77.654,21.007 75.660,20.651 75.232 C 20.546 75.104,20.394 75.000,20.315 75.000 C 19.656 75.000,15.333 70.848,15.333 70.215 C 15.333 70.097,15.267 70.000,15.187 70.000 C 15.106 70.000,14.947 69.775,14.833 69.500 C 14.719 69.225,14.560 69.000,14.480 69.000 C 14.399 69.000,14.333 68.897,14.333 68.770 C 14.333 68.644,14.221 68.447,14.083 68.333 C 13.946 68.219,13.833 68.018,13.833 67.886 C 13.833 67.754,13.639 67.235,13.401 66.732 C 13.163 66.229,12.955 65.727,12.938 65.617 C 12.922 65.507,12.822 65.192,12.716 64.917 C 12.486 64.321,11.971 62.255,11.906 61.667 C 11.881 61.438,11.803 60.987,11.733 60.667 C 11.664 60.346,11.579 51.141,11.545 40.212 L 11.484 20.342 17.367 20.296 L 23.250 20.250 23.266 40.250 C 23.281 59.889,23.290 60.667,23.486 60.667 C 23.540 60.667,23.602 60.981,23.624 61.364 C 23.646 61.748,23.758 62.122,23.874 62.195 C 23.989 62.268,24.018 62.329,23.938 62.331 C 23.858 62.332,23.886 62.446,24.000 62.583 C 24.114 62.721,24.149 62.833,24.078 62.833 C 24.007 62.833,24.091 62.996,24.266 63.195 C 24.440 63.394,24.495 63.506,24.386 63.443 C 24.261 63.370,24.281 63.512,24.440 63.831 C 24.578 64.107,24.761 64.333,24.846 64.333 C 24.930 64.333,25.000 64.446,25.000 64.583 C 25.000 64.721,25.075 64.833,25.167 64.833 C 25.258 64.833,25.333 64.927,25.333 65.042 C 25.333 65.241,26.205 66.167,26.393 66.167 C 26.442 66.167,26.684 66.353,26.929 66.580 C 27.174 66.808,27.441 66.953,27.521 66.904 C 27.601 66.854,27.667 66.893,27.667 66.990 C 27.667 67.087,27.817 67.167,28.000 67.167 C 28.183 67.167,28.333 67.246,28.333 67.343 C 28.333 67.440,28.408 67.473,28.500 67.417 C 28.592 67.360,28.667 67.393,28.667 67.490 C 28.667 67.587,28.887 67.667,29.157 67.667 C 29.426 67.667,29.687 67.731,29.735 67.810 C 29.784 67.888,30.182 67.998,30.620 68.054 C 31.058 68.110,31.604 68.205,31.833 68.265 C 32.766 68.511,36.301 68.498,37.687 68.244 C 38.455 68.104,39.300 67.956,39.565 67.916 C 40.136 67.830,41.497 67.342,41.792 67.118 C 41.906 67.030,42.000 67.005,42.000 67.061 C 42.000 67.175,42.319 66.927,43.565 65.843 C 44.034 65.436,44.417 65.046,44.417 64.976 C 44.417 64.907,44.510 64.756,44.625 64.642 C 44.740 64.527,44.833 64.333,44.833 64.211 C 44.833 64.089,44.945 63.947,45.082 63.894 C 45.219 63.841,45.287 63.727,45.233 63.639 C 45.178 63.551,45.248 63.352,45.387 63.198 C 45.711 62.837,46.308 60.512,46.272 59.750 C 46.257 59.429,46.302 59.167,46.372 59.167 C 46.442 59.167,46.491 59.110,46.480 59.042 C 46.469 58.973,46.469 50.235,46.480 39.625 L 46.500 20.333 52.250 20.333 L 58.000 20.333 57.993 38.875 C 57.985 58.820,57.888 62.018,57.242 63.708 C 57.110 64.052,57.042 64.333,57.091 64.333 C 57.139 64.333,57.104 64.472,57.014 64.641 C 56.923 64.810,56.812 65.155,56.766 65.408 C 56.720 65.661,56.529 66.162,56.341 66.522 C 56.154 66.882,56.000 67.287,56.000 67.422 C 56.000 67.556,55.925 67.667,55.833 67.667 C 55.742 67.667,55.679 67.723,55.693 67.792 C 55.725 67.940,55.482 68.548,55.344 68.667 C 55.197 68.793,54.390 70.060,54.336 70.250 C 54.310 70.342,54.147 70.516,53.975 70.636 C 53.802 70.757,53.704 70.926,53.757 71.011 C 53.810 71.097,53.772 71.167,53.672 71.167 C 53.573 71.167,53.419 71.359,53.330 71.593 C 53.240 71.828,53.092 71.974,53.000 71.917 C 52.908 71.860,52.833 71.905,52.833 72.017 C 52.833 72.229,51.867 73.167,51.648 73.167 C 51.579 73.167,51.475 73.318,51.416 73.502 C 51.357 73.687,51.253 73.803,51.184 73.761 C 51.116 73.718,50.939 73.811,50.791 73.967 C 50.366 74.416,49.928 74.757,49.892 74.667 C 49.875 74.621,49.666 74.752,49.429 74.958 C 49.192 75.165,48.940 75.333,48.871 75.333 C 48.801 75.333,48.473 75.517,48.142 75.742 C 47.811 75.967,47.504 76.115,47.461 76.072 C 47.417 76.028,47.286 76.106,47.170 76.246 C 47.054 76.386,46.871 76.500,46.763 76.500 C 46.462 76.500,45.669 76.899,45.668 77.052 C 45.667 77.126,45.598 77.144,45.513 77.092 C 45.429 77.040,45.260 77.091,45.138 77.207 C 45.016 77.322,44.729 77.428,44.500 77.442 C 44.271 77.456,43.650 77.622,43.120 77.810 C 41.742 78.300,38.066 78.878,36.458 78.858 C 36.298 78.856,36.167 78.924,36.167 79.010 C 36.167 79.390,40.576 78.941,42.542 78.362 C 51.284 75.786,56.981 69.994,57.898 62.750 C 57.944 62.383,58.079 61.783,58.197 61.417 C 58.368 60.887,58.413 56.569,58.415 40.417 L 58.417 20.083 52.333 20.083 L 46.250 20.083 46.146 39.583 C 46.039 59.570,46.018 60.167,45.341 62.155 C 44.660 64.156,43.171 66.149,41.973 66.665 C 41.759 66.757,41.471 66.900,41.333 66.983 C 39.366 68.164,33.914 68.571,30.750 67.773 C 28.284 67.150,25.500 65.414,25.500 64.497 C 25.500 64.401,25.387 64.280,25.250 64.227 C 25.113 64.174,25.000 63.993,25.000 63.825 C 25.000 63.657,24.932 63.478,24.849 63.426 C 24.642 63.298,24.187 61.972,23.903 60.667 C 23.707 59.767,23.667 56.267,23.667 39.992 C 23.667 24.976,23.620 20.353,23.467 20.200 C 23.154 19.888,11.355 19.915,11.235 20.228 M129.577 20.208 C 129.533 20.323,129.517 33.467,129.541 49.417 L 129.583 78.417 135.625 78.460 L 141.667 78.504 141.667 71.279 L 141.667 64.053 145.280 63.944 C 149.241 63.825,149.122 63.801,149.667 64.844 C 149.922 65.333,151.339 67.540,152.685 69.545 C 153.225 70.349,153.667 71.039,153.667 71.077 C 153.667 71.115,154.275 72.069,155.018 73.198 C 155.761 74.327,156.732 75.813,157.175 76.500 C 157.618 77.188,158.101 77.919,158.248 78.125 L 158.516 78.500 165.498 78.500 C 172.244 78.500,172.957 78.448,172.415 77.998 C 172.278 77.885,172.167 77.695,172.167 77.577 C 172.167 77.458,172.110 77.336,172.042 77.306 C 171.973 77.275,171.708 76.929,171.452 76.536 C 171.179 76.116,170.911 75.869,170.801 75.936 C 170.684 76.009,170.662 75.975,170.743 75.845 C 170.818 75.723,170.636 75.292,170.291 74.778 C 169.973 74.304,168.448 72.004,166.901 69.667 C 165.355 67.329,164.032 65.392,163.962 65.361 C 163.891 65.331,163.833 65.238,163.833 65.156 C 163.833 64.871,161.788 62.008,161.647 62.096 C 161.568 62.144,161.543 62.082,161.591 61.958 C 161.638 61.833,161.444 61.410,161.160 61.017 C 160.875 60.624,160.668 60.277,160.699 60.245 C 160.731 60.213,161.242 59.947,161.836 59.652 C 164.389 58.385,168.500 54.811,168.500 53.858 C 168.500 53.753,168.566 53.667,168.646 53.667 C 168.822 53.667,170.209 50.880,170.553 49.833 C 171.557 46.782,171.958 42.944,171.607 39.750 C 171.405 37.913,171.195 36.515,171.097 36.356 C 171.041 36.264,170.926 35.865,170.843 35.469 C 170.691 34.745,170.315 33.606,169.973 32.833 C 169.872 32.604,169.709 32.229,169.612 32.000 C 167.244 26.412,161.218 22.262,153.167 20.676 C 149.958 20.044,129.792 19.644,129.577 20.208 M181.778 20.111 C 181.717 20.172,181.667 33.335,181.667 49.361 L 181.667 78.500 201.583 78.500 L 221.500 78.500 221.500 73.083 L 221.500 67.667 207.750 67.667 L 194.000 67.667 194.000 63.583 L 194.000 59.500 205.583 59.500 L 217.167 59.500 217.167 54.250 L 217.167 49.000 205.583 49.000 L 194.000 49.000 194.000 40.000 L 194.000 31.000 207.158 31.000 L 220.316 31.000 220.329 25.500 L 220.341 20.000 201.115 20.000 C 190.541 20.000,181.839 20.050,181.778 20.111 M288.702 20.198 C 288.385 20.515,288.410 78.051,288.727 78.314 C 288.892 78.451,292.221 78.491,300.931 78.459 L 312.908 78.417 313.210 77.263 C 314.660 71.728,319.406 68.940,326.042 69.727 L 327.167 69.860 327.167 68.763 C 327.167 68.160,327.110 67.676,327.042 67.686 C 326.973 67.697,321.086 67.697,313.959 67.686 L 301.001 67.667 300.959 43.875 L 300.917 20.083 294.910 20.040 C 290.378 20.007,288.855 20.045,288.702 20.198 M148.083 20.501 C 149.000 20.587,150.313 20.712,151.000 20.780 C 151.688 20.847,152.449 20.905,152.692 20.909 C 152.936 20.913,153.095 20.981,153.047 21.060 C 152.998 21.138,153.118 21.152,153.312 21.090 C 153.531 21.021,153.667 21.050,153.667 21.165 C 153.667 21.269,153.733 21.312,153.814 21.262 C 153.895 21.212,154.382 21.316,154.897 21.493 C 155.412 21.670,155.833 21.786,155.833 21.750 C 155.833 21.714,156.340 21.872,156.958 22.102 C 157.577 22.331,158.224 22.549,158.396 22.587 C 158.568 22.625,158.884 22.771,159.098 22.911 C 159.313 23.052,159.635 23.167,159.814 23.167 C 159.993 23.167,160.165 23.246,160.197 23.342 C 160.252 23.505,160.606 23.623,161.135 23.654 C 161.255 23.661,161.307 23.742,161.250 23.833 C 161.193 23.925,161.255 24.000,161.386 24.000 C 161.518 24.000,161.719 24.113,161.833 24.250 C 161.947 24.387,162.186 24.500,162.364 24.500 C 162.541 24.500,162.641 24.573,162.586 24.662 C 162.531 24.751,162.672 24.870,162.898 24.927 C 163.124 24.984,163.350 25.136,163.399 25.265 C 163.449 25.394,163.604 25.500,163.745 25.500 C 163.885 25.500,164.000 25.604,164.000 25.732 C 164.000 25.948,164.283 26.151,164.520 26.104 C 164.576 26.093,164.951 26.455,165.353 26.909 C 165.755 27.362,166.196 27.851,166.333 27.995 C 166.887 28.575,168.333 30.504,168.333 30.663 C 168.333 30.757,168.413 30.833,168.510 30.833 C 168.607 30.833,168.640 30.908,168.583 31.000 C 168.527 31.092,168.560 31.167,168.657 31.167 C 168.754 31.167,168.821 31.223,168.807 31.292 C 168.765 31.488,169.041 32.071,169.237 32.202 C 169.335 32.267,169.431 32.523,169.450 32.770 C 169.469 33.018,169.581 33.282,169.700 33.358 C 169.819 33.433,169.851 33.496,169.771 33.497 C 169.691 33.499,169.706 33.596,169.803 33.714 C 169.901 33.831,170.018 34.137,170.065 34.395 C 170.112 34.652,170.225 34.953,170.318 35.065 C 170.410 35.176,170.443 35.432,170.390 35.634 C 170.335 35.845,170.371 36.000,170.475 36.000 C 170.575 36.000,170.613 36.112,170.560 36.250 C 170.508 36.387,170.551 36.500,170.656 36.500 C 170.762 36.500,170.836 36.594,170.821 36.708 C 170.742 37.314,170.853 38.507,170.981 38.428 C 171.062 38.378,171.121 38.430,171.110 38.543 C 171.100 38.657,171.159 39.650,171.242 40.750 C 171.325 41.850,171.372 42.825,171.347 42.917 C 171.321 43.008,171.267 43.496,171.227 44.000 C 171.117 45.387,171.090 45.569,170.972 45.751 C 170.912 45.844,170.844 46.294,170.820 46.751 C 170.797 47.209,170.709 47.674,170.624 47.784 C 170.540 47.895,170.516 48.057,170.570 48.145 C 170.624 48.233,170.600 48.330,170.517 48.361 C 170.433 48.392,170.339 48.642,170.308 48.917 C 170.277 49.192,170.195 49.458,170.126 49.509 C 170.058 49.560,169.985 49.804,169.964 50.051 C 169.944 50.298,169.864 50.500,169.787 50.500 C 169.710 50.500,169.693 50.575,169.750 50.667 C 169.807 50.758,169.761 50.833,169.649 50.833 C 169.536 50.833,169.495 50.883,169.556 50.945 C 169.617 51.006,169.549 51.187,169.404 51.347 C 169.260 51.507,169.125 51.749,169.105 51.885 C 169.085 52.022,168.969 52.253,168.847 52.400 C 168.725 52.547,168.678 52.667,168.741 52.667 C 168.805 52.667,168.739 52.785,168.594 52.930 C 168.449 53.075,168.380 53.281,168.442 53.388 C 168.503 53.496,168.492 53.528,168.418 53.461 C 168.240 53.300,167.480 54.332,167.615 54.551 C 167.672 54.643,167.635 54.667,167.534 54.604 C 167.429 54.539,167.241 54.690,167.098 54.953 C 166.960 55.208,166.844 55.359,166.840 55.289 C 166.836 55.218,166.574 55.443,166.257 55.789 C 165.940 56.134,165.584 56.517,165.465 56.640 C 165.149 56.967,163.280 58.272,162.622 58.624 C 162.310 58.792,161.744 59.175,161.364 59.476 C 160.984 59.777,160.604 59.981,160.520 59.929 C 160.282 59.782,160.170 60.268,160.388 60.504 C 160.541 60.669,160.529 60.689,160.333 60.595 C 160.180 60.522,160.197 60.568,160.375 60.714 C 160.535 60.846,160.667 61.039,160.667 61.143 C 160.667 61.248,160.741 61.333,160.832 61.333 C 160.924 61.333,161.159 61.675,161.355 62.092 C 161.573 62.557,161.795 62.820,161.926 62.769 C 162.075 62.712,162.119 62.810,162.068 63.089 C 162.010 63.411,162.051 63.470,162.275 63.384 C 162.469 63.310,162.516 63.339,162.429 63.481 C 162.303 63.684,162.964 64.830,163.208 64.832 C 163.277 64.833,163.333 64.946,163.333 65.083 C 163.333 65.221,163.421 65.333,163.528 65.333 C 163.635 65.333,163.677 65.379,163.621 65.434 C 163.526 65.529,163.621 65.682,164.125 66.244 C 164.240 66.372,164.333 66.557,164.333 66.655 C 164.333 66.753,164.413 66.833,164.510 66.833 C 164.607 66.833,164.640 66.908,164.583 67.000 C 164.527 67.092,164.560 67.167,164.657 67.167 C 164.754 67.167,164.833 67.282,164.833 67.422 C 164.833 67.562,164.946 67.720,165.083 67.773 C 165.221 67.826,165.333 67.978,165.333 68.111 C 165.333 68.244,165.408 68.307,165.500 68.250 C 165.592 68.193,165.669 68.245,165.672 68.365 C 165.682 68.725,166.619 70.473,166.996 70.833 C 167.044 70.879,167.158 71.044,167.250 71.200 C 167.342 71.355,167.611 71.768,167.850 72.116 C 168.088 72.465,168.800 73.537,169.433 74.500 C 170.066 75.462,170.640 76.275,170.708 76.306 C 170.777 76.336,170.833 76.427,170.833 76.506 C 170.833 76.761,171.621 77.823,171.729 77.715 C 171.787 77.658,171.833 77.738,171.833 77.892 C 171.833 78.152,171.309 78.173,165.078 78.163 C 160.733 78.156,158.358 78.094,158.423 77.990 C 158.512 77.846,157.936 76.718,157.663 76.500 C 157.605 76.454,157.414 76.156,157.237 75.838 C 157.061 75.520,156.785 75.112,156.625 74.932 C 156.465 74.752,156.240 74.393,156.126 74.135 C 156.012 73.878,155.873 73.667,155.818 73.667 C 155.763 73.667,155.582 73.367,155.417 73.000 C 155.251 72.633,155.002 72.333,154.864 72.333 C 154.725 72.333,154.661 72.284,154.721 72.223 C 154.782 72.162,154.641 71.862,154.407 71.556 C 154.174 71.250,154.038 71.000,154.106 71.000 C 154.174 71.000,154.037 70.794,153.802 70.542 C 153.566 70.290,153.278 69.898,153.161 69.671 C 153.044 69.444,152.305 68.281,151.520 67.087 C 149.914 64.645,149.764 64.409,149.472 63.857 C 149.282 63.499,149.189 63.474,148.423 63.568 C 147.961 63.625,146.140 63.719,144.375 63.776 L 141.167 63.880 141.167 71.023 L 141.167 78.167 135.500 78.167 L 129.833 78.167 129.833 49.250 L 129.833 20.333 138.125 20.339 C 142.685 20.343,147.167 20.415,148.083 20.501 M220.000 25.500 L 220.000 30.667 206.792 30.667 L 193.583 30.667 193.583 40.000 L 193.583 49.333 205.125 49.333 L 216.667 49.333 216.667 54.333 L 216.667 59.333 205.125 59.333 L 193.583 59.333 193.583 63.667 L 193.583 68.000 207.375 68.000 L 221.167 68.000 221.167 73.083 L 221.167 78.167 201.583 78.167 L 182.000 78.167 182.000 49.250 L 182.000 20.333 201.000 20.333 L 220.000 20.333 220.000 25.500 M300.500 44.167 L 300.500 68.000 313.667 68.000 L 326.833 68.000 326.833 68.719 L 326.833 69.439 323.875 69.441 C 320.783 69.444,319.389 69.718,317.768 70.642 C 315.501 71.933,313.332 75.021,312.920 77.542 L 312.818 78.167 300.914 78.167 L 289.009 78.167 288.963 72.958 C 288.938 70.094,288.936 57.081,288.959 44.042 L 289.002 20.333 294.751 20.333 L 300.500 20.333 300.500 44.167 M141.167 42.190 L 141.167 53.713 144.792 53.623 C 148.225 53.538,150.254 53.342,151.446 52.981 C 151.737 52.893,152.187 52.789,152.446 52.750 C 153.096 52.653,154.138 52.262,154.372 52.028 C 154.479 51.921,154.702 51.833,154.867 51.833 C 155.032 51.833,155.167 51.763,155.167 51.678 C 155.167 51.592,155.324 51.473,155.516 51.412 C 156.000 51.258,157.697 49.458,158.067 48.705 C 158.235 48.363,158.480 47.877,158.612 47.625 C 158.744 47.373,158.814 47.167,158.767 47.167 C 158.720 47.167,158.795 46.848,158.933 46.458 C 159.495 44.874,159.537 40.163,159.006 38.333 C 158.886 37.921,158.765 37.397,158.738 37.170 C 158.710 36.943,158.608 36.730,158.510 36.698 C 158.413 36.665,158.333 36.560,158.333 36.463 C 158.333 36.179,157.621 34.833,157.470 34.833 C 157.395 34.833,157.333 34.746,157.333 34.639 C 157.333 34.285,155.680 32.894,154.708 32.430 C 154.181 32.179,153.525 31.868,153.250 31.738 C 152.975 31.609,152.563 31.470,152.333 31.430 C 152.104 31.391,151.879 31.344,151.833 31.326 C 151.787 31.309,151.675 31.277,151.583 31.256 C 151.492 31.235,151.379 31.200,151.333 31.178 C 151.287 31.157,151.100 31.118,150.917 31.093 C 150.733 31.068,150.138 30.962,149.594 30.857 C 149.036 30.750,146.985 30.667,144.886 30.667 L 141.167 30.667 141.167 42.190 M150.128 31.326 C 151.036 31.505,152.223 31.811,152.765 32.005 C 154.020 32.456,153.992 32.443,154.583 32.833 C 154.858 33.015,155.177 33.209,155.291 33.266 C 160.338 35.764,160.151 48.326,155.022 51.288 C 154.598 51.533,154.204 51.800,154.148 51.881 C 154.092 51.962,153.979 52.023,153.898 52.017 C 153.817 52.010,153.150 52.185,152.417 52.405 C 151.683 52.625,150.746 52.850,150.333 52.906 C 148.083 53.208,146.325 53.328,144.083 53.330 L 141.583 53.333 141.622 46.292 C 141.643 42.419,141.661 37.394,141.663 35.125 L 141.667 31.000 145.071 31.000 C 147.774 31.000,148.816 31.067,150.128 31.326 M253.647 41.529 C 253.636 41.742,253.636 41.973,253.647 42.042 C 253.658 42.110,253.585 42.167,253.486 42.167 C 253.387 42.167,253.340 42.260,253.381 42.375 C 253.423 42.490,253.358 42.827,253.237 43.125 C 253.116 43.423,253.060 43.667,253.112 43.667 C 253.165 43.667,253.137 43.760,253.052 43.875 C 252.966 43.990,252.901 44.233,252.906 44.417 C 252.912 44.600,252.822 44.850,252.707 44.972 C 252.591 45.094,252.540 45.262,252.592 45.347 C 252.644 45.431,252.607 45.500,252.510 45.500 C 252.413 45.500,252.333 45.579,252.333 45.677 C 252.333 45.774,252.410 45.806,252.504 45.747 C 252.598 45.689,252.535 45.891,252.365 46.196 C 252.194 46.501,252.089 46.854,252.132 46.982 C 252.184 47.137,252.139 47.169,251.993 47.079 C 251.840 46.985,251.806 47.022,251.877 47.206 C 251.932 47.350,251.926 47.518,251.864 47.581 C 251.801 47.643,251.741 47.763,251.729 47.847 C 251.718 47.931,251.693 48.019,251.675 48.042 C 251.626 48.103,251.483 48.717,251.462 48.958 C 251.453 49.073,251.391 49.167,251.325 49.167 C 251.214 49.167,250.750 50.355,250.584 51.062 C 250.544 51.234,250.393 51.555,250.249 51.775 C 250.104 51.996,250.026 52.240,250.075 52.319 C 250.123 52.398,250.048 52.558,249.907 52.674 C 249.767 52.791,249.690 52.987,249.737 53.110 C 249.784 53.233,249.758 53.333,249.680 53.333 C 249.557 53.333,249.477 53.525,249.243 54.375 C 249.224 54.444,249.190 54.556,249.168 54.625 C 249.145 54.694,249.136 54.806,249.147 54.875 C 249.158 54.944,249.087 55.000,248.990 55.000 C 248.893 55.000,248.860 55.075,248.917 55.167 C 248.973 55.258,248.940 55.333,248.843 55.333 C 248.746 55.333,248.667 55.479,248.667 55.657 C 248.667 55.835,248.590 56.027,248.497 56.085 C 248.404 56.143,248.371 56.260,248.424 56.345 C 248.477 56.430,248.440 56.500,248.343 56.500 C 248.246 56.500,248.166 56.594,248.166 56.708 C 248.165 56.823,248.053 57.131,247.917 57.392 C 247.780 57.654,247.705 57.927,247.749 57.998 C 247.793 58.070,247.718 58.222,247.581 58.335 C 247.445 58.448,247.333 58.639,247.333 58.760 C 247.333 58.880,247.247 59.189,247.141 59.447 C 247.036 59.706,246.921 60.063,246.887 60.243 C 246.853 60.422,246.756 60.612,246.671 60.664 C 246.587 60.716,246.475 61.000,246.423 61.296 L 246.329 61.833 254.053 61.833 C 258.302 61.833,261.824 61.787,261.881 61.730 C 261.938 61.673,261.774 61.204,261.516 60.688 C 261.258 60.172,261.080 59.656,261.121 59.542 C 261.161 59.427,261.113 59.333,261.014 59.333 C 260.915 59.333,260.849 59.277,260.869 59.208 C 260.888 59.140,260.811 58.915,260.696 58.708 C 260.582 58.502,260.530 58.333,260.582 58.333 C 260.633 58.333,260.545 58.090,260.386 57.792 C 260.227 57.494,260.091 57.212,260.083 57.167 C 260.019 56.800,259.573 55.833,259.467 55.833 C 259.393 55.833,259.342 55.777,259.353 55.708 C 259.364 55.640,259.355 55.508,259.334 55.417 C 259.312 55.325,259.282 55.175,259.266 55.083 C 259.231 54.885,258.898 54.102,258.569 53.445 C 258.440 53.185,258.333 52.873,258.333 52.750 C 258.333 52.628,258.254 52.501,258.158 52.469 C 258.061 52.437,257.962 52.299,257.937 52.164 C 257.912 52.028,257.767 51.626,257.613 51.271 C 257.459 50.916,257.331 50.541,257.328 50.438 C 257.325 50.335,257.215 50.108,257.083 49.934 C 256.952 49.760,256.887 49.549,256.939 49.464 C 256.991 49.380,256.895 49.198,256.725 49.060 C 256.555 48.922,256.510 48.856,256.623 48.913 C 256.759 48.982,256.796 48.929,256.730 48.759 C 256.676 48.616,256.568 48.500,256.492 48.500 C 256.415 48.500,256.384 48.335,256.423 48.134 C 256.462 47.933,256.389 47.652,256.262 47.509 C 256.134 47.367,255.991 46.996,255.943 46.686 C 255.895 46.376,255.775 46.042,255.678 45.944 C 255.580 45.847,255.500 45.590,255.500 45.375 C 255.500 45.160,255.390 44.772,255.257 44.513 C 255.123 44.254,255.058 43.997,255.114 43.942 C 255.169 43.887,255.119 43.727,255.003 43.587 C 254.887 43.448,254.835 43.333,254.888 43.333 C 254.940 43.333,254.873 43.071,254.739 42.750 C 254.605 42.429,254.553 42.166,254.623 42.164 C 254.693 42.163,254.651 42.099,254.531 42.022 C 254.410 41.946,254.290 41.741,254.265 41.567 C 254.195 41.087,253.671 41.056,253.647 41.529 M254.675 44.167 C 255.567 47.089,256.618 50.106,257.259 51.583 C 257.955 53.187,258.141 53.645,258.323 54.206 C 258.434 54.548,258.594 54.872,258.679 54.924 C 258.764 54.977,258.833 55.128,258.833 55.259 C 258.833 55.391,259.046 55.968,259.307 56.541 C 259.789 57.602,261.055 60.678,261.228 61.208 C 261.317 61.483,260.903 61.500,254.078 61.500 C 250.093 61.500,246.833 61.470,246.833 61.432 C 246.833 61.395,247.283 60.313,247.833 59.027 C 248.383 57.741,248.833 56.646,248.833 56.593 C 248.833 56.540,248.974 56.178,249.147 55.790 C 249.903 54.087,251.342 50.467,251.979 48.667 C 252.211 48.011,252.903 45.833,253.595 43.584 C 253.848 42.759,254.075 42.159,254.099 42.250 C 254.122 42.342,254.382 43.204,254.675 44.167 "
              stroke="none" fill="#5363f3" fill-rule="evenodd"></path>
        <path id="path4"
              d="M70.000 49.000 L 70.000 78.167 75.333 78.167 L 80.667 78.167 80.699 65.042 C 80.716 57.823,80.722 51.729,80.712 51.500 C 80.702 51.271,80.675 50.424,80.653 49.618 C 80.630 48.812,80.545 48.111,80.463 48.060 C 80.381 48.010,80.364 47.741,80.425 47.463 C 80.488 47.173,80.463 46.913,80.364 46.852 C 80.089 46.682,80.009 43.222,80.280 43.222 C 80.401 43.222,80.500 43.325,80.500 43.450 C 80.500 43.575,80.612 43.720,80.750 43.773 C 80.887 43.826,81.000 43.967,81.000 44.086 C 81.000 44.206,81.231 44.498,81.513 44.735 C 81.795 44.972,81.978 45.167,81.921 45.167 C 81.863 45.167,81.993 45.335,82.209 45.542 C 82.426 45.748,82.819 46.217,83.084 46.583 C 83.348 46.950,83.826 47.494,84.146 47.792 C 84.466 48.090,84.627 48.333,84.505 48.333 C 84.367 48.333,84.418 48.451,84.638 48.642 C 84.834 48.812,84.939 49.011,84.872 49.085 C 84.805 49.159,84.841 49.168,84.953 49.104 C 85.070 49.036,85.381 49.202,85.686 49.493 C 85.978 49.772,86.162 50.000,86.095 50.000 C 86.029 50.000,86.199 50.225,86.474 50.500 C 86.749 50.775,87.036 51.000,87.112 51.001 C 87.188 51.001,87.625 51.395,88.082 51.876 C 88.540 52.357,89.110 52.900,89.350 53.083 C 89.589 53.267,89.796 53.492,89.809 53.583 C 89.822 53.675,89.893 53.750,89.965 53.750 C 90.038 53.750,90.611 54.256,91.239 54.875 C 91.867 55.494,92.449 56.000,92.533 56.000 C 92.618 56.000,92.643 56.070,92.591 56.155 C 92.538 56.240,92.642 56.356,92.821 56.413 C 93.000 56.470,93.515 56.925,93.964 57.425 C 94.414 57.924,94.828 58.333,94.884 58.333 C 94.941 58.333,95.926 59.271,97.074 60.417 C 98.221 61.563,99.194 62.500,99.236 62.500 C 99.379 62.500,101.167 64.384,101.167 64.535 C 101.167 64.618,101.232 64.646,101.311 64.597 C 101.509 64.475,102.031 65.077,101.875 65.249 C 101.806 65.325,101.844 65.332,101.960 65.266 C 102.083 65.195,102.211 65.256,102.271 65.412 C 102.328 65.559,102.597 65.794,102.869 65.935 C 103.141 66.076,103.321 66.235,103.268 66.288 C 103.215 66.341,103.403 66.555,103.686 66.764 C 104.259 67.187,104.278 67.204,105.927 68.787 C 106.575 69.408,107.363 70.142,107.680 70.417 C 107.996 70.692,108.418 71.127,108.617 71.384 C 108.815 71.640,109.031 71.865,109.095 71.884 C 109.278 71.935,110.799 73.309,111.946 74.458 C 112.517 75.031,113.032 75.500,113.090 75.500 C 113.148 75.500,113.606 75.931,114.108 76.458 C 114.609 76.985,115.090 77.398,115.177 77.375 C 115.263 77.352,115.333 77.399,115.333 77.480 C 115.333 77.828,116.416 78.667,116.865 78.667 L 117.333 78.667 117.333 49.500 L 117.333 20.333 111.912 20.333 L 106.491 20.333 106.509 33.875 C 106.519 41.323,106.593 47.815,106.672 48.303 C 106.752 48.790,106.864 49.990,106.922 50.970 C 107.046 53.080,107.120 53.894,107.254 54.625 C 107.376 55.290,106.808 55.413,106.482 54.792 C 106.373 54.585,106.183 54.357,106.059 54.283 C 105.935 54.210,105.833 54.059,105.833 53.948 C 105.833 53.838,105.683 53.653,105.500 53.539 C 105.317 53.424,105.167 53.219,105.167 53.082 C 105.167 52.945,105.054 52.833,104.917 52.833 C 104.779 52.833,104.667 52.721,104.667 52.583 C 104.667 52.446,104.595 52.333,104.507 52.333 C 104.419 52.333,104.160 52.015,103.932 51.625 C 103.703 51.235,103.362 50.806,103.175 50.672 C 102.987 50.537,102.833 50.330,102.833 50.213 C 102.833 50.096,102.721 50.000,102.583 50.000 C 102.446 50.000,102.333 49.896,102.333 49.768 C 102.333 49.640,102.216 49.491,102.073 49.436 C 101.929 49.381,101.859 49.260,101.916 49.168 C 101.973 49.076,101.937 49.000,101.835 49.000 C 101.586 49.000,100.585 47.995,100.441 47.601 C 100.377 47.428,100.281 47.330,100.226 47.385 C 100.171 47.440,99.779 47.153,99.355 46.748 C 98.931 46.344,98.377 45.826,98.125 45.598 C 97.873 45.369,97.667 45.136,97.667 45.079 C 97.667 44.940,97.219 44.500,97.076 44.500 C 97.014 44.500,96.489 44.012,95.911 43.417 C 95.332 42.821,94.797 42.333,94.721 42.333 C 94.645 42.333,94.171 41.930,93.667 41.436 C 93.162 40.943,92.280 40.081,91.706 39.520 C 91.132 38.959,90.576 38.500,90.470 38.500 C 90.364 38.500,90.327 38.451,90.386 38.392 C 90.503 38.275,89.741 37.500,89.511 37.500 C 89.435 37.500,89.333 37.350,89.285 37.167 C 89.237 36.984,89.042 36.777,88.852 36.706 C 88.661 36.636,87.521 35.642,86.319 34.497 C 82.881 31.225,82.762 31.114,82.108 30.542 C 81.767 30.244,81.528 30.000,81.576 30.000 C 81.625 30.000,81.501 29.813,81.302 29.583 C 81.103 29.354,80.860 29.166,80.762 29.166 C 80.664 29.165,79.496 28.120,78.167 26.843 C 76.837 25.566,75.559 24.348,75.326 24.136 C 73.736 22.688,72.722 21.667,72.799 21.590 C 72.848 21.540,72.780 21.500,72.647 21.500 C 72.513 21.500,72.035 21.125,71.583 20.667 C 71.073 20.149,70.618 19.833,70.381 19.833 L 70.000 19.833 70.000 49.000 M253.763 20.125 C 253.712 20.285,253.676 20.483,253.683 20.565 C 253.690 20.646,253.601 20.771,253.485 20.843 C 253.369 20.914,253.248 21.144,253.216 21.354 C 253.184 21.564,253.066 21.794,252.954 21.865 C 252.842 21.937,252.815 21.996,252.895 21.997 C 252.975 21.999,252.938 22.124,252.812 22.276 C 252.686 22.427,252.603 22.578,252.627 22.610 C 252.651 22.642,252.557 22.940,252.419 23.271 C 252.280 23.603,252.167 23.907,252.167 23.947 C 252.167 24.051,251.359 25.828,251.063 26.375 C 250.926 26.627,250.871 26.833,250.939 26.833 C 251.008 26.833,250.918 26.951,250.740 27.096 C 250.562 27.240,250.518 27.306,250.642 27.242 C 250.806 27.158,250.794 27.238,250.600 27.534 C 250.453 27.759,250.382 27.994,250.444 28.055 C 250.505 28.116,250.473 28.167,250.372 28.167 C 250.272 28.167,250.138 28.335,250.075 28.542 C 250.012 28.748,249.793 29.292,249.588 29.750 C 249.383 30.208,249.124 30.864,249.012 31.206 C 248.900 31.548,248.738 31.872,248.652 31.926 C 248.565 31.979,248.532 32.084,248.579 32.159 C 248.625 32.234,248.551 32.388,248.415 32.502 C 248.278 32.615,248.167 32.818,248.167 32.954 C 248.167 33.262,247.708 34.271,247.292 34.875 C 247.119 35.127,247.022 35.333,247.076 35.333 C 247.131 35.333,247.059 35.558,246.917 35.833 C 246.774 36.108,246.702 36.333,246.755 36.333 C 246.809 36.333,246.747 36.540,246.618 36.792 C 246.084 37.837,245.793 38.486,245.801 38.614 C 245.806 38.689,245.716 38.862,245.603 39.000 C 245.489 39.137,245.261 39.587,245.097 40.000 C 244.932 40.412,244.689 40.956,244.556 41.208 C 244.423 41.460,244.361 41.667,244.419 41.667 C 244.476 41.667,244.363 41.891,244.167 42.166 C 243.972 42.440,243.859 42.740,243.917 42.833 C 243.974 42.926,243.904 43.047,243.762 43.102 C 243.619 43.157,243.540 43.264,243.587 43.339 C 243.634 43.415,243.596 43.524,243.503 43.582 C 243.410 43.639,243.333 43.833,243.333 44.012 C 243.333 44.340,243.285 44.463,242.764 45.458 C 242.609 45.756,242.528 46.000,242.585 46.000 C 242.643 46.000,242.543 46.206,242.364 46.458 C 242.186 46.710,241.924 47.254,241.783 47.667 C 241.642 48.079,241.287 48.942,240.993 49.583 C 240.700 50.225,240.313 51.087,240.133 51.500 C 239.954 51.913,239.701 52.449,239.570 52.692 C 239.440 52.936,239.333 53.254,239.333 53.401 C 239.333 53.547,239.264 53.667,239.180 53.667 C 239.096 53.667,238.976 53.910,238.914 54.208 C 238.851 54.506,238.694 54.919,238.563 55.125 C 238.433 55.331,238.371 55.500,238.426 55.500 C 238.482 55.500,238.353 55.781,238.141 56.125 C 237.928 56.469,237.779 56.750,237.809 56.750 C 237.878 56.750,237.455 57.720,237.337 57.833 C 237.289 57.879,237.225 58.028,237.195 58.164 C 237.165 58.301,236.961 58.805,236.741 59.285 C 236.522 59.765,236.294 60.348,236.236 60.581 C 236.177 60.814,236.031 61.060,235.910 61.127 C 235.789 61.195,235.683 61.306,235.674 61.374 C 235.593 62.012,235.422 62.524,235.240 62.675 C 235.119 62.776,235.061 62.965,235.111 63.096 C 235.161 63.226,235.124 63.333,235.029 63.333 C 234.857 63.333,234.570 63.968,234.634 64.208 C 234.652 64.277,234.587 64.333,234.490 64.333 C 234.393 64.333,234.357 64.403,234.410 64.488 C 234.462 64.574,234.424 64.694,234.325 64.755 C 234.225 64.817,234.186 64.976,234.237 65.109 C 234.288 65.242,234.263 65.310,234.183 65.260 C 234.102 65.210,233.977 65.375,233.906 65.626 C 233.835 65.878,233.766 66.121,233.752 66.167 C 233.714 66.289,233.347 67.105,232.777 68.333 C 232.289 69.384,232.246 69.503,232.192 69.968 C 232.178 70.088,232.096 70.142,232.009 70.089 C 231.922 70.035,231.880 70.143,231.916 70.329 C 231.952 70.515,231.919 70.667,231.842 70.667 C 231.766 70.667,231.654 70.931,231.593 71.255 C 231.533 71.578,231.413 71.799,231.327 71.746 C 231.241 71.693,231.215 71.766,231.270 71.908 C 231.324 72.050,231.286 72.167,231.184 72.167 C 231.083 72.167,231.000 72.354,231.000 72.583 C 231.000 72.813,230.940 73.000,230.866 73.000 C 230.793 73.000,230.597 73.394,230.432 73.875 C 230.267 74.356,229.924 75.200,229.670 75.750 C 228.941 77.325,228.667 77.959,228.667 78.067 C 228.667 78.122,231.142 78.167,234.167 78.167 C 237.192 78.167,239.655 78.110,239.640 78.042 C 239.606 77.882,239.780 77.401,240.136 76.676 C 240.290 76.360,240.398 76.041,240.375 75.967 C 240.352 75.894,240.396 75.833,240.472 75.833 C 240.549 75.833,240.617 75.740,240.623 75.625 C 240.644 75.266,241.246 73.742,241.550 73.277 C 241.710 73.033,241.790 72.833,241.728 72.833 C 241.666 72.833,241.728 72.702,241.866 72.542 C 242.003 72.381,242.163 72.119,242.219 71.958 C 242.393 71.470,266.095 71.511,266.250 72.000 C 266.308 72.183,266.426 72.333,266.511 72.333 C 266.597 72.333,266.667 72.528,266.667 72.766 C 266.667 73.004,266.768 73.398,266.891 73.641 C 267.469 74.779,267.913 75.928,267.866 76.167 C 267.857 76.212,267.947 76.400,268.066 76.583 C 268.185 76.767,268.375 77.198,268.488 77.542 L 268.693 78.167 274.680 78.167 C 277.972 78.167,280.667 78.122,280.667 78.067 C 280.667 78.013,280.566 77.769,280.442 77.526 C 280.318 77.282,280.101 76.821,279.959 76.500 C 279.816 76.179,279.440 75.354,279.122 74.667 C 278.805 73.979,278.378 73.042,278.173 72.583 C 277.969 72.125,277.700 71.525,277.576 71.250 C 277.452 70.975,277.154 70.313,276.914 69.778 C 276.674 69.243,276.467 68.664,276.453 68.491 C 276.440 68.317,276.333 68.138,276.215 68.093 C 276.097 68.048,275.998 67.877,275.995 67.714 C 275.992 67.550,275.879 67.271,275.745 67.093 C 275.610 66.915,275.500 66.603,275.500 66.399 C 275.500 66.195,275.431 66.003,275.346 65.972 C 275.261 65.942,275.167 65.804,275.138 65.667 C 275.108 65.529,275.023 65.372,274.950 65.318 C 274.877 65.264,274.805 65.063,274.790 64.872 C 274.776 64.680,274.705 64.560,274.632 64.605 C 274.559 64.650,274.500 64.602,274.500 64.500 C 274.500 64.321,274.142 63.500,273.192 61.500 C 272.952 60.996,272.755 60.508,272.753 60.417 C 272.751 60.325,272.712 60.212,272.667 60.167 C 272.581 60.081,272.001 58.870,271.549 57.833 C 271.409 57.512,271.191 57.051,271.064 56.808 C 270.937 56.564,270.833 56.177,270.833 55.947 C 270.833 55.716,270.754 55.501,270.658 55.469 C 270.561 55.437,270.465 55.299,270.445 55.164 C 270.424 55.028,270.349 54.823,270.277 54.708 C 270.206 54.594,270.201 54.413,270.266 54.308 C 270.331 54.202,270.314 54.159,270.228 54.212 C 270.141 54.266,269.989 54.108,269.888 53.863 C 269.696 53.394,269.488 52.808,269.464 52.667 C 269.456 52.621,269.343 52.505,269.213 52.410 C 269.083 52.315,268.997 52.165,269.021 52.077 C 269.092 51.825,268.827 51.167,268.655 51.167 C 268.570 51.167,268.500 51.066,268.500 50.942 C 268.500 50.819,268.393 50.500,268.263 50.234 C 268.133 49.968,268.002 49.600,267.971 49.417 C 267.941 49.233,267.823 48.984,267.708 48.863 C 267.594 48.742,267.500 48.536,267.500 48.405 C 267.500 48.274,267.421 48.167,267.323 48.167 C 267.226 48.167,267.190 48.097,267.243 48.012 C 267.296 47.926,267.261 47.809,267.167 47.750 C 267.072 47.691,267.038 47.574,267.090 47.488 C 267.143 47.403,267.102 47.333,267.000 47.333 C 266.898 47.333,266.860 47.258,266.917 47.167 C 266.973 47.075,266.932 47.000,266.825 47.000 C 266.718 47.000,266.675 46.885,266.729 46.744 C 266.785 46.598,266.721 46.447,266.581 46.393 C 266.446 46.341,266.377 46.231,266.427 46.149 C 266.478 46.067,266.440 46.000,266.343 46.000 C 266.246 46.000,266.167 45.813,266.167 45.583 C 266.167 45.354,266.100 45.167,266.019 45.167 C 265.878 45.167,265.710 44.772,265.562 44.092 C 265.524 43.914,265.376 43.639,265.233 43.482 C 265.091 43.325,264.957 43.096,264.936 42.973 C 264.845 42.460,264.634 42.000,264.489 42.000 C 264.403 42.000,264.333 41.862,264.333 41.694 C 264.333 41.526,264.277 41.333,264.208 41.264 C 264.140 41.195,264.081 41.089,264.077 41.028 C 264.074 40.967,263.983 40.758,263.875 40.564 C 263.767 40.369,263.726 40.163,263.784 40.105 C 263.842 40.047,263.810 40.000,263.714 40.000 C 263.549 40.000,263.276 39.399,263.315 39.125 C 263.325 39.056,263.254 39.000,263.157 39.000 C 263.060 39.000,263.023 38.930,263.076 38.845 C 263.129 38.760,263.095 38.642,263.000 38.583 C 262.905 38.525,262.866 38.415,262.913 38.339 C 262.960 38.264,262.882 38.157,262.741 38.103 C 262.600 38.049,262.503 37.910,262.525 37.794 C 262.585 37.483,262.335 36.833,262.155 36.833 C 262.070 36.833,262.000 36.696,262.000 36.528 C 262.000 36.360,261.944 36.166,261.875 36.097 C 261.806 36.028,261.746 35.922,261.742 35.861 C 261.737 35.800,261.553 35.375,261.334 34.917 C 261.114 34.458,260.949 34.027,260.967 33.958 C 260.985 33.890,260.921 33.833,260.823 33.833 C 260.726 33.833,260.690 33.764,260.743 33.678 C 260.796 33.593,260.761 33.475,260.667 33.417 C 260.572 33.358,260.533 33.248,260.580 33.173 C 260.626 33.097,260.553 32.992,260.416 32.939 C 260.279 32.887,260.167 32.654,260.167 32.422 C 260.167 32.190,260.092 32.000,260.000 32.000 C 259.908 32.000,259.845 31.944,259.859 31.875 C 259.874 31.806,259.721 31.395,259.519 30.961 C 259.318 30.527,259.158 30.133,259.164 30.084 C 259.169 30.036,259.044 29.754,258.886 29.457 C 258.728 29.160,258.614 28.860,258.632 28.792 C 258.651 28.723,258.579 28.667,258.472 28.667 C 258.365 28.667,258.326 28.619,258.384 28.560 C 258.442 28.502,258.342 28.247,258.162 27.993 C 257.981 27.739,257.833 27.425,257.833 27.294 C 257.833 27.163,257.777 26.999,257.708 26.931 C 257.640 26.862,257.581 26.756,257.577 26.694 C 257.574 26.633,257.484 26.426,257.377 26.234 C 257.228 25.966,257.229 25.837,257.383 25.682 C 257.540 25.524,257.513 25.507,257.263 25.602 C 257.006 25.700,256.964 25.668,257.052 25.439 C 257.120 25.262,257.068 25.118,256.915 25.060 C 256.779 25.008,256.710 24.898,256.761 24.816 C 256.812 24.734,256.769 24.667,256.667 24.667 C 256.564 24.667,256.521 24.600,256.571 24.520 C 256.621 24.439,256.513 24.183,256.331 23.952 C 256.149 23.720,256.000 23.399,256.000 23.238 C 256.000 23.078,255.809 22.621,255.576 22.223 C 255.343 21.825,255.202 21.500,255.263 21.500 C 255.324 21.500,255.281 21.387,255.167 21.250 C 255.053 21.112,255.011 21.000,255.075 21.000 C 255.138 21.000,255.073 20.882,254.929 20.738 C 254.785 20.594,254.667 20.332,254.667 20.155 C 254.667 19.732,253.896 19.707,253.763 20.125 M17.367 20.292 L 11.484 20.338 11.545 40.210 C 11.579 51.141,11.664 60.346,11.733 60.667 C 11.803 60.987,11.881 61.438,11.906 61.667 C 11.971 62.255,12.486 64.321,12.716 64.917 C 12.822 65.192,12.922 65.507,12.938 65.617 C 12.955 65.727,13.163 66.229,13.401 66.732 C 13.639 67.235,13.833 67.754,13.833 67.886 C 13.833 68.018,13.946 68.219,14.083 68.333 C 14.221 68.447,14.333 68.644,14.333 68.770 C 14.333 68.897,14.399 69.000,14.480 69.000 C 14.560 69.000,14.719 69.225,14.833 69.500 C 14.947 69.775,15.106 70.000,15.187 70.000 C 15.267 70.000,15.333 70.097,15.333 70.215 C 15.333 70.848,19.656 75.000,20.315 75.000 C 20.394 75.000,20.546 75.104,20.651 75.232 C 21.007 75.660,25.333 77.654,25.333 77.389 C 25.333 77.336,25.428 77.371,25.544 77.467 C 26.259 78.061,31.526 78.881,34.397 78.846 C 35.156 78.837,35.808 78.910,35.939 79.019 C 36.092 79.145,36.167 79.149,36.167 79.031 C 36.167 78.934,36.298 78.856,36.458 78.858 C 38.066 78.878,41.742 78.300,43.120 77.810 C 43.650 77.622,44.271 77.456,44.500 77.442 C 44.729 77.428,45.016 77.322,45.138 77.207 C 45.260 77.091,45.429 77.040,45.513 77.092 C 45.598 77.144,45.667 77.126,45.668 77.052 C 45.669 76.899,46.462 76.500,46.763 76.500 C 46.871 76.500,47.054 76.386,47.170 76.246 C 47.286 76.106,47.417 76.028,47.461 76.072 C 47.504 76.115,47.811 75.967,48.142 75.742 C 48.473 75.517,48.801 75.333,48.871 75.333 C 48.940 75.333,49.192 75.165,49.429 74.958 C 49.666 74.752,49.893 74.604,49.933 74.629 C 50.016 74.679,50.391 74.390,50.791 73.967 C 50.939 73.811,51.116 73.718,51.184 73.761 C 51.253 73.803,51.357 73.687,51.416 73.502 C 51.475 73.318,51.579 73.167,51.648 73.167 C 51.867 73.167,52.833 72.229,52.833 72.017 C 52.833 71.905,52.908 71.860,53.000 71.917 C 53.092 71.974,53.240 71.828,53.330 71.593 C 53.419 71.359,53.573 71.167,53.672 71.167 C 53.772 71.167,53.810 71.097,53.757 71.011 C 53.704 70.926,53.802 70.757,53.975 70.636 C 54.147 70.516,54.298 70.360,54.309 70.291 C 54.333 70.148,55.195 68.795,55.344 68.667 C 55.482 68.548,55.725 67.940,55.693 67.792 C 55.679 67.723,55.742 67.667,55.833 67.667 C 55.925 67.667,56.000 67.556,56.000 67.422 C 56.000 67.287,56.154 66.882,56.341 66.522 C 56.529 66.162,56.720 65.661,56.766 65.408 C 56.812 65.155,56.923 64.810,57.014 64.641 C 57.104 64.472,57.139 64.333,57.091 64.333 C 57.042 64.333,57.110 64.052,57.242 63.708 C 57.888 62.018,57.985 58.820,57.993 38.875 L 58.000 20.333 52.250 20.333 L 46.500 20.333 46.480 39.625 C 46.469 50.235,46.469 58.973,46.480 59.042 C 46.491 59.110,46.442 59.167,46.372 59.167 C 46.302 59.167,46.257 59.429,46.272 59.750 C 46.308 60.512,45.711 62.837,45.387 63.198 C 45.248 63.352,45.178 63.551,45.233 63.639 C 45.287 63.727,45.219 63.841,45.082 63.894 C 44.945 63.947,44.833 64.089,44.833 64.211 C 44.833 64.333,44.740 64.527,44.625 64.642 C 44.510 64.756,44.417 64.907,44.417 64.976 C 44.417 65.046,44.034 65.436,43.565 65.843 C 42.319 66.927,42.000 67.175,42.000 67.061 C 42.000 67.005,41.906 67.030,41.792 67.118 C 41.497 67.342,40.137 67.830,39.565 67.916 C 39.300 67.957,38.422 68.109,37.613 68.256 C 36.394 68.476,36.098 68.484,35.873 68.303 C 35.675 68.142,35.636 68.139,35.728 68.292 C 35.824 68.451,35.549 68.500,34.552 68.498 C 32.885 68.496,31.974 68.349,32.111 68.104 C 32.186 67.970,32.160 67.967,32.021 68.095 C 31.814 68.285,30.347 68.100,29.794 67.816 C 29.635 67.734,29.316 67.667,29.086 67.667 C 28.855 67.667,28.667 67.587,28.667 67.490 C 28.667 67.393,28.592 67.360,28.500 67.417 C 28.408 67.473,28.333 67.440,28.333 67.343 C 28.333 67.246,28.183 67.167,28.000 67.167 C 27.817 67.167,27.667 67.087,27.667 66.990 C 27.667 66.893,27.601 66.854,27.521 66.904 C 27.441 66.953,27.174 66.808,26.929 66.580 C 26.684 66.353,26.442 66.167,26.393 66.167 C 26.205 66.167,25.333 65.241,25.333 65.042 C 25.333 64.927,25.258 64.833,25.167 64.833 C 25.075 64.833,25.000 64.721,25.000 64.583 C 25.000 64.446,24.930 64.333,24.846 64.333 C 24.761 64.333,24.578 64.107,24.440 63.831 C 24.281 63.512,24.261 63.370,24.386 63.443 C 24.495 63.506,24.440 63.394,24.266 63.195 C 24.091 62.996,24.007 62.833,24.078 62.833 C 24.149 62.833,24.114 62.721,24.000 62.583 C 23.886 62.446,23.858 62.332,23.938 62.331 C 24.018 62.329,23.989 62.268,23.874 62.195 C 23.758 62.122,23.646 61.748,23.624 61.364 C 23.602 60.981,23.540 60.667,23.486 60.667 C 23.290 60.667,23.281 59.888,23.266 40.208 C 23.257 29.185,23.250 20.184,23.250 20.206 C 23.250 20.228,20.603 20.266,17.367 20.292 M129.833 49.250 L 129.833 78.167 135.500 78.167 L 141.167 78.167 141.167 71.023 L 141.167 63.880 144.375 63.776 C 146.140 63.719,147.961 63.625,148.423 63.568 C 149.189 63.474,149.282 63.499,149.472 63.857 C 149.764 64.409,149.914 64.645,151.520 67.087 C 152.305 68.281,153.044 69.444,153.161 69.671 C 153.278 69.898,153.566 70.290,153.802 70.542 C 154.037 70.794,154.174 71.000,154.106 71.000 C 154.038 71.000,154.174 71.250,154.407 71.556 C 154.641 71.862,154.782 72.162,154.721 72.223 C 154.661 72.284,154.725 72.333,154.864 72.333 C 155.002 72.333,155.251 72.633,155.417 73.000 C 155.582 73.367,155.763 73.667,155.818 73.667 C 155.873 73.667,156.012 73.878,156.126 74.135 C 156.240 74.393,156.465 74.752,156.625 74.932 C 156.785 75.112,157.061 75.520,157.237 75.838 C 157.414 76.156,157.605 76.454,157.663 76.500 C 157.936 76.718,158.512 77.846,158.423 77.990 C 158.358 78.094,160.733 78.156,165.078 78.163 C 171.309 78.173,171.833 78.152,171.833 77.892 C 171.833 77.738,171.787 77.658,171.729 77.715 C 171.621 77.823,170.833 76.761,170.833 76.506 C 170.833 76.427,170.777 76.336,170.708 76.306 C 170.640 76.275,170.066 75.462,169.433 74.500 C 168.800 73.537,168.088 72.465,167.850 72.116 C 167.611 71.768,167.342 71.355,167.250 71.200 C 167.158 71.044,167.044 70.879,166.996 70.833 C 166.619 70.473,165.682 68.725,165.672 68.365 C 165.669 68.245,165.592 68.193,165.500 68.250 C 165.408 68.307,165.333 68.244,165.333 68.111 C 165.333 67.978,165.221 67.826,165.083 67.773 C 164.946 67.720,164.833 67.562,164.833 67.422 C 164.833 67.282,164.754 67.167,164.657 67.167 C 164.560 67.167,164.527 67.092,164.583 67.000 C 164.640 66.908,164.607 66.833,164.510 66.833 C 164.413 66.833,164.333 66.753,164.333 66.655 C 164.333 66.557,164.240 66.372,164.125 66.244 C 163.621 65.682,163.526 65.529,163.621 65.434 C 163.677 65.379,163.635 65.333,163.528 65.333 C 163.421 65.333,163.333 65.221,163.333 65.083 C 163.333 64.946,163.277 64.833,163.208 64.832 C 162.964 64.830,162.303 63.684,162.429 63.481 C 162.516 63.339,162.469 63.310,162.275 63.384 C 162.051 63.470,162.010 63.411,162.068 63.089 C 162.119 62.810,162.075 62.712,161.926 62.769 C 161.795 62.820,161.573 62.557,161.355 62.092 C 161.159 61.675,160.924 61.333,160.832 61.333 C 160.741 61.333,160.667 61.248,160.667 61.143 C 160.667 61.039,160.535 60.846,160.375 60.714 C 160.197 60.568,160.180 60.522,160.333 60.595 C 160.529 60.689,160.541 60.669,160.388 60.504 C 160.170 60.268,160.282 59.782,160.520 59.929 C 160.604 59.981,160.984 59.777,161.364 59.476 C 161.744 59.175,162.310 58.792,162.622 58.624 C 163.280 58.272,165.149 56.967,165.465 56.640 C 165.584 56.517,165.940 56.134,166.257 55.789 C 166.574 55.443,166.836 55.218,166.840 55.289 C 166.844 55.359,166.960 55.208,167.098 54.953 C 167.241 54.690,167.429 54.539,167.534 54.604 C 167.635 54.667,167.672 54.643,167.615 54.551 C 167.480 54.332,168.240 53.300,168.418 53.461 C 168.492 53.528,168.503 53.496,168.442 53.388 C 168.380 53.281,168.449 53.075,168.594 52.930 C 168.739 52.785,168.805 52.667,168.741 52.667 C 168.678 52.667,168.725 52.547,168.847 52.400 C 168.969 52.253,169.085 52.022,169.105 51.885 C 169.125 51.749,169.260 51.507,169.404 51.347 C 169.549 51.187,169.617 51.006,169.556 50.945 C 169.495 50.883,169.536 50.833,169.649 50.833 C 169.761 50.833,169.807 50.758,169.750 50.667 C 169.693 50.575,169.710 50.500,169.787 50.500 C 169.864 50.500,169.944 50.298,169.964 50.051 C 169.985 49.804,170.058 49.560,170.126 49.509 C 170.195 49.458,170.277 49.192,170.308 48.917 C 170.339 48.642,170.433 48.392,170.517 48.361 C 170.600 48.330,170.624 48.233,170.570 48.145 C 170.516 48.057,170.540 47.895,170.624 47.784 C 170.709 47.674,170.797 47.209,170.820 46.751 C 170.844 46.294,170.912 45.844,170.972 45.751 C 171.090 45.569,171.117 45.387,171.227 44.000 C 171.267 43.496,171.321 43.008,171.347 42.917 C 171.372 42.825,171.325 41.850,171.242 40.750 C 171.159 39.650,171.100 38.657,171.110 38.543 C 171.121 38.430,171.062 38.378,170.981 38.428 C 170.853 38.507,170.742 37.314,170.821 36.708 C 170.836 36.594,170.762 36.500,170.656 36.500 C 170.551 36.500,170.508 36.387,170.560 36.250 C 170.613 36.112,170.575 36.000,170.475 36.000 C 170.371 36.000,170.335 35.845,170.390 35.634 C 170.443 35.432,170.410 35.176,170.318 35.065 C 170.225 34.953,170.112 34.652,170.065 34.395 C 170.018 34.137,169.901 33.831,169.803 33.714 C 169.706 33.596,169.691 33.499,169.771 33.497 C 169.851 33.496,169.819 33.433,169.700 33.358 C 169.581 33.282,169.469 33.018,169.450 32.770 C 169.431 32.523,169.335 32.267,169.237 32.202 C 169.041 32.071,168.765 31.488,168.807 31.292 C 168.821 31.223,168.754 31.167,168.657 31.167 C 168.560 31.167,168.527 31.092,168.583 31.000 C 168.640 30.908,168.607 30.833,168.510 30.833 C 168.413 30.833,168.333 30.757,168.333 30.663 C 168.333 30.504,166.887 28.575,166.333 27.995 C 166.196 27.851,165.755 27.362,165.353 26.909 C 164.951 26.455,164.576 26.093,164.520 26.104 C 164.283 26.151,164.000 25.948,164.000 25.732 C 164.000 25.604,163.885 25.500,163.745 25.500 C 163.604 25.500,163.449 25.394,163.399 25.265 C 163.350 25.136,163.124 24.984,162.898 24.927 C 162.672 24.870,162.531 24.751,162.586 24.662 C 162.641 24.573,162.541 24.500,162.364 24.500 C 162.186 24.500,161.947 24.387,161.833 24.250 C 161.719 24.113,161.518 24.000,161.386 24.000 C 161.255 24.000,161.193 23.925,161.250 23.833 C 161.307 23.742,161.255 23.661,161.135 23.654 C 160.606 23.623,160.252 23.505,160.197 23.342 C 160.165 23.246,159.993 23.167,159.814 23.167 C 159.635 23.167,159.313 23.052,159.098 22.911 C 158.884 22.771,158.568 22.625,158.396 22.587 C 158.224 22.549,157.577 22.331,156.958 22.102 C 156.340 21.872,155.833 21.714,155.833 21.750 C 155.833 21.786,155.412 21.670,154.897 21.493 C 154.382 21.316,153.895 21.212,153.814 21.262 C 153.733 21.312,153.667 21.269,153.667 21.165 C 153.667 21.050,153.531 21.021,153.312 21.090 C 153.118 21.152,152.998 21.138,153.047 21.060 C 153.095 20.981,152.936 20.913,152.692 20.909 C 152.449 20.905,151.688 20.847,151.000 20.780 C 150.313 20.712,149.000 20.587,148.083 20.501 C 147.167 20.415,142.685 20.343,138.125 20.339 L 129.833 20.333 129.833 49.250 M182.000 49.250 L 182.000 78.167 201.583 78.167 L 221.167 78.167 221.167 73.083 L 221.167 68.000 207.375 68.000 L 193.583 68.000 193.583 63.667 L 193.583 59.333 205.125 59.333 L 216.667 59.333 216.667 54.333 L 216.667 49.333 205.125 49.333 L 193.583 49.333 193.583 40.000 L 193.583 30.667 206.792 30.667 L 220.000 30.667 220.000 25.500 L 220.000 20.333 201.000 20.333 L 182.000 20.333 182.000 49.250 M288.959 44.042 C 288.936 57.081,288.938 70.094,288.963 72.958 L 289.009 78.167 300.914 78.167 L 312.818 78.167 312.920 77.542 C 313.332 75.021,315.501 71.933,317.768 70.642 C 319.389 69.718,320.783 69.444,323.875 69.441 L 326.833 69.439 326.833 68.719 L 326.833 68.000 313.667 68.000 L 300.500 68.000 300.500 44.167 L 300.500 20.333 294.751 20.333 L 289.002 20.333 288.959 44.042 M149.594 30.857 C 150.138 30.962,150.733 31.068,150.917 31.093 C 151.100 31.118,151.287 31.157,151.333 31.178 C 151.379 31.200,151.492 31.235,151.583 31.256 C 151.675 31.277,151.787 31.309,151.833 31.326 C 151.879 31.344,152.104 31.391,152.333 31.430 C 152.563 31.470,152.975 31.609,153.250 31.738 C 153.525 31.868,154.181 32.179,154.708 32.430 C 155.680 32.894,157.333 34.285,157.333 34.639 C 157.333 34.746,157.395 34.833,157.470 34.833 C 157.621 34.833,158.333 36.179,158.333 36.463 C 158.333 36.560,158.413 36.665,158.510 36.698 C 158.608 36.730,158.710 36.943,158.738 37.170 C 158.765 37.397,158.886 37.921,159.006 38.333 C 159.537 40.163,159.495 44.874,158.933 46.458 C 158.795 46.848,158.720 47.167,158.767 47.167 C 158.814 47.167,158.744 47.373,158.612 47.625 C 158.480 47.877,158.235 48.363,158.067 48.705 C 157.697 49.458,156.000 51.258,155.516 51.412 C 155.324 51.473,155.167 51.592,155.167 51.678 C 155.167 51.763,155.032 51.833,154.867 51.833 C 154.702 51.833,154.479 51.921,154.372 52.028 C 154.138 52.262,153.096 52.653,152.446 52.750 C 152.187 52.789,151.737 52.893,151.446 52.981 C 150.254 53.342,148.225 53.538,144.792 53.623 L 141.167 53.713 141.167 42.190 L 141.167 30.667 144.886 30.667 C 146.985 30.667,149.036 30.750,149.594 30.857 M254.265 41.567 C 254.290 41.741,254.410 41.946,254.531 42.022 C 254.651 42.099,254.693 42.163,254.623 42.164 C 254.553 42.166,254.605 42.429,254.739 42.750 C 254.873 43.071,254.940 43.333,254.888 43.333 C 254.835 43.333,254.887 43.448,255.003 43.587 C 255.119 43.727,255.169 43.887,255.114 43.942 C 255.058 43.997,255.123 44.254,255.257 44.513 C 255.390 44.772,255.500 45.160,255.500 45.375 C 255.500 45.590,255.580 45.847,255.678 45.944 C 255.775 46.042,255.895 46.376,255.943 46.686 C 255.991 46.996,256.134 47.367,256.262 47.509 C 256.389 47.652,256.462 47.933,256.423 48.134 C 256.384 48.335,256.431 48.500,256.527 48.500 C 256.624 48.500,256.658 48.615,256.604 48.756 C 256.547 48.904,256.614 49.054,256.762 49.111 C 256.904 49.165,256.982 49.305,256.938 49.422 C 256.893 49.539,256.961 49.773,257.089 49.942 C 257.218 50.111,257.325 50.335,257.328 50.438 C 257.331 50.541,257.459 50.916,257.613 51.271 C 257.767 51.626,257.912 52.028,257.937 52.164 C 257.962 52.299,258.061 52.437,258.158 52.469 C 258.254 52.501,258.333 52.628,258.333 52.750 C 258.333 52.873,258.440 53.185,258.569 53.445 C 258.898 54.102,259.231 54.885,259.266 55.083 C 259.282 55.175,259.312 55.325,259.334 55.417 C 259.355 55.508,259.364 55.640,259.353 55.708 C 259.342 55.777,259.393 55.833,259.467 55.833 C 259.573 55.833,260.019 56.800,260.083 57.167 C 260.091 57.212,260.227 57.494,260.386 57.792 C 260.545 58.090,260.633 58.333,260.582 58.333 C 260.530 58.333,260.582 58.502,260.696 58.708 C 260.811 58.915,260.888 59.140,260.869 59.208 C 260.849 59.277,260.915 59.333,261.014 59.333 C 261.113 59.333,261.161 59.427,261.121 59.542 C 261.080 59.656,261.258 60.172,261.516 60.688 C 261.774 61.204,261.938 61.673,261.881 61.730 C 261.824 61.787,258.302 61.833,254.053 61.833 L 246.329 61.833 246.423 61.296 C 246.475 61.000,246.587 60.716,246.671 60.664 C 246.756 60.612,246.853 60.422,246.887 60.243 C 246.921 60.063,247.036 59.706,247.141 59.447 C 247.247 59.189,247.333 58.880,247.333 58.760 C 247.333 58.639,247.445 58.448,247.581 58.335 C 247.718 58.222,247.793 58.070,247.749 57.998 C 247.705 57.927,247.780 57.654,247.917 57.392 C 248.053 57.131,248.165 56.823,248.166 56.708 C 248.166 56.594,248.246 56.500,248.343 56.500 C 248.440 56.500,248.477 56.430,248.424 56.345 C 248.371 56.260,248.404 56.143,248.497 56.085 C 248.590 56.027,248.667 55.835,248.667 55.657 C 248.667 55.479,248.746 55.333,248.843 55.333 C 248.940 55.333,248.973 55.258,248.917 55.167 C 248.860 55.075,248.893 55.000,248.990 55.000 C 249.087 55.000,249.158 54.944,249.147 54.875 C 249.136 54.806,249.145 54.694,249.168 54.625 C 249.190 54.556,249.224 54.444,249.243 54.375 C 249.477 53.525,249.557 53.333,249.680 53.333 C 249.758 53.333,249.784 53.233,249.737 53.110 C 249.690 52.987,249.767 52.791,249.907 52.674 C 250.048 52.558,250.123 52.398,250.075 52.319 C 250.026 52.240,250.104 51.996,250.249 51.775 C 250.393 51.555,250.544 51.234,250.584 51.062 C 250.750 50.355,251.214 49.167,251.325 49.167 C 251.391 49.167,251.453 49.073,251.462 48.958 C 251.483 48.717,251.626 48.103,251.675 48.042 C 251.693 48.019,251.718 47.931,251.729 47.847 C 251.741 47.763,251.801 47.643,251.864 47.581 C 251.926 47.518,251.932 47.350,251.877 47.206 C 251.806 47.022,251.840 46.985,251.993 47.079 C 252.139 47.169,252.184 47.137,252.132 46.982 C 252.089 46.854,252.194 46.501,252.365 46.196 C 252.535 45.891,252.598 45.689,252.504 45.747 C 252.410 45.806,252.333 45.774,252.333 45.677 C 252.333 45.579,252.413 45.500,252.510 45.500 C 252.607 45.500,252.644 45.431,252.592 45.347 C 252.540 45.262,252.591 45.094,252.707 44.972 C 252.822 44.850,252.912 44.600,252.906 44.417 C 252.901 44.233,252.966 43.990,253.052 43.875 C 253.137 43.760,253.165 43.667,253.112 43.667 C 253.060 43.667,253.116 43.423,253.237 43.125 C 253.358 42.827,253.423 42.490,253.381 42.375 C 253.340 42.260,253.387 42.167,253.486 42.167 C 253.585 42.167,253.658 42.110,253.647 42.042 C 253.636 41.973,253.636 41.742,253.647 41.529 C 253.671 41.056,254.195 41.087,254.265 41.567 "
              stroke="none" fill="#5c64f4" fill-rule="evenodd"></path>
    </g>
</svg>